<svg width="350" height="350" viewBox="0 0 350 350" fill="none" xmlns="http://www.w3.org/2000/svg">
<path d="M286.739 190.581H189.874V269.001H286.739V190.581Z" fill="#FFAFA4"/>
<path fill-rule="evenodd" clip-rule="evenodd" d="M217.847 226.549H202.68V259.485H217.847V226.549ZM277.345 228.111H262.178V259.485H277.345V228.111ZM257.514 219.324H242.345V259.485H257.514V219.324ZM237.681 208.078H222.512V259.485H237.681V208.078ZM273.078 222.945H266.249V226.675H273.078V222.945ZM213.387 221.495H206.558V225.224H213.387V221.495ZM253.344 214.513H246.515V218.243H253.344V214.513ZM233.265 203.009H226.438V206.739H233.265V203.009Z" fill="#FFF1E2"/>
<path fill-rule="evenodd" clip-rule="evenodd" d="M246.435 253.54L276.24 221.313C276.665 220.853 277.379 220.831 277.833 221.263C278.285 221.698 278.307 222.424 277.882 222.884L247.149 256.115C246.919 256.362 246.593 256.494 246.26 256.474C245.925 256.453 245.616 256.282 245.419 256.007L224.064 226.401L201.264 257.236C200.889 257.742 200.183 257.845 199.686 257.463C199.188 257.084 199.087 256.364 199.462 255.858L223.173 223.789C223.388 223.498 223.724 223.329 224.08 223.33C224.437 223.332 224.771 223.506 224.983 223.799L246.435 253.54Z" fill="#DC5D3C"/>
<path fill-rule="evenodd" clip-rule="evenodd" d="M231.827 117.204C231.709 116.873 231.645 116.515 231.645 116.144C231.645 114.4 233.059 112.985 234.803 112.985C236.545 112.985 237.961 114.4 237.961 116.144C237.961 117.887 236.545 119.302 234.803 119.302C234.379 119.302 233.975 119.218 233.605 119.067L201.997 156.025C202.2 156.442 202.314 156.909 202.314 157.403C202.314 159.146 200.898 160.561 199.156 160.561C197.412 160.561 195.998 159.146 195.998 157.403C195.998 157.317 196.001 157.232 196.008 157.147L192.998 155.058C192.462 155.473 191.791 155.721 191.062 155.721C190.708 155.721 190.369 155.663 190.052 155.556L158.122 197.636C158.219 197.941 158.272 198.265 158.272 198.602C158.272 200.345 156.857 201.76 155.114 201.76C153.37 201.76 151.956 200.345 151.956 198.602C151.956 198.432 151.969 198.265 151.994 198.104L132.313 178.377C131.873 178.609 131.372 178.741 130.841 178.741C130.523 178.741 130.215 178.694 129.926 178.605L95.6512 231.964C95.9308 232.435 96.0915 232.985 96.0915 233.573C96.0915 235.315 94.6764 236.731 92.9333 236.731C91.1902 236.731 89.7751 235.315 89.7751 233.573C89.7751 231.829 91.1902 230.414 92.9333 230.414C93.1483 230.414 93.3581 230.435 93.5612 230.476L127.972 176.905C127.786 176.503 127.683 176.055 127.683 175.583C127.683 173.84 129.098 172.424 130.841 172.424C132.584 172.424 134 173.84 134 175.583C134 175.846 133.967 176.102 133.906 176.347L153.439 195.925C153.925 195.62 154.499 195.444 155.114 195.444C155.561 195.444 155.986 195.537 156.372 195.704L188.16 153.811C187.995 153.428 187.903 153.006 187.903 152.563C187.903 150.82 189.318 149.405 191.062 149.405C192.804 149.405 194.22 150.82 194.22 152.563C194.22 152.636 194.217 152.71 194.212 152.782L197.247 154.888C197.777 154.485 198.438 154.245 199.156 154.245C199.463 154.245 199.761 154.289 200.041 154.371L231.827 117.204Z" fill="#FFAFA4"/>
<path d="M168.557 90.3466H68.1938V166.16H168.557V90.3466Z" fill="#FFF1E2"/>
<path fill-rule="evenodd" clip-rule="evenodd" d="M88.3315 103.159H81.5026V158.776H88.3315V103.159ZM101.881 98.1946H95.0526V158.747H101.881V98.1946ZM115.431 110.902H108.603V158.715H115.431V110.902ZM128.982 103.014H122.152V158.68H128.982V103.014ZM142.532 118.48H135.703V158.642H142.532V118.48ZM156.081 129.706H149.252V158.6H156.081V129.706Z" fill="#FFAFA4" fill-opacity="0.64"/>
<path fill-rule="evenodd" clip-rule="evenodd" d="M182.98 245.317H169.336V227.17H159.998L176.158 203.735L192.319 227.17H182.98V245.317Z" fill="#E5734E"/>
<path fill-rule="evenodd" clip-rule="evenodd" d="M256.928 93.874H270.572V112.021H279.91L263.75 135.455L247.59 112.021H256.928V93.874Z" fill="#FFB000"/>
<path d="M222.958 201.272C235.517 201.272 245.698 190.916 245.698 178.141C245.698 165.366 235.517 155.01 222.958 155.01C210.399 155.01 200.218 165.366 200.218 178.141C200.218 190.916 210.399 201.272 222.958 201.272Z" fill="#FFCD80"/>
<path fill-rule="evenodd" clip-rule="evenodd" d="M217.648 162.362L216.812 162.666L216.398 161.485L217.857 160.956C218.203 160.83 218.574 160.994 218.688 161.32L219.389 163.317C220.685 162.908 221.978 162.658 223.267 162.566C224.914 162.448 226.555 162.588 228.189 162.985C228.373 163.029 228.523 163.151 228.602 163.316C228.679 163.481 228.677 163.674 228.594 163.845L226.752 167.633C226.613 167.918 226.286 168.074 225.976 168.001C224.371 167.626 222.727 167.639 221.044 168.039L223.377 174.695C229.826 173.718 233.679 175.399 235.03 179.517C235.773 181.75 235.545 183.907 234.353 185.976C233.28 187.915 231.517 189.553 229.048 190.873L230.251 194.305C230.365 194.631 230.178 194.995 229.833 195.121L228.4 195.64L227.987 194.461L228.797 194.167L227.62 190.81C227.515 190.511 227.662 190.174 227.964 190.025C230.421 188.804 232.172 187.277 233.205 185.412C234.216 183.658 234.404 181.837 233.776 179.949C232.56 176.245 228.936 175.016 223.008 176.027C222.695 176.079 222.398 175.913 222.299 175.63L219.569 167.843C219.512 167.68 219.53 167.499 219.616 167.341C219.702 167.185 219.85 167.066 220.026 167.015C221.998 166.429 223.923 166.311 225.799 166.659L227.068 164.05C225.818 163.812 224.564 163.736 223.305 163.828C221.93 163.925 220.552 164.22 219.167 164.71C218.824 164.831 218.456 164.667 218.343 164.343L217.648 162.362ZM227.374 186.098C228.189 185.509 228.724 184.903 228.948 184.26C229.084 183.848 229.139 183.42 229.114 182.977L230.428 182.854C230.459 183.454 230.382 184.034 230.196 184.602C229.827 185.656 228.896 186.676 227.348 187.614C227.178 187.718 226.971 187.744 226.784 187.685C226.6 187.626 226.455 187.488 226.393 187.31L224.93 183.136L226.177 182.684L227.374 186.098ZM214.695 171.875C214.727 171.262 214.857 170.714 215.077 170.232C215.082 170.22 215.089 170.207 215.094 170.196C215.624 169.2 216.407 168.453 217.439 167.955C217.608 167.873 217.804 167.863 217.975 167.927C218.146 167.991 218.277 168.124 218.335 168.291L219.534 171.709L218.286 172.161L217.342 169.466C216.896 169.795 216.539 170.211 216.269 170.712C216.114 171.059 216.03 171.452 216.007 171.891C216.007 171.902 216.006 171.914 216.004 171.926C215.954 172.391 216.036 172.903 216.232 173.462L214.985 173.914C214.725 173.174 214.633 172.493 214.695 171.875Z" fill="#FDA31F"/>
<path fill-rule="evenodd" clip-rule="evenodd" d="M216.784 176.049C215.937 175.609 215.333 174.9 214.987 173.912L216.234 173.46C216.472 174.138 216.873 174.632 217.454 174.933L217.475 174.944C217.94 175.208 218.579 175.317 219.39 175.302L218.289 172.159L219.536 171.707L220.917 175.647C220.981 175.83 220.951 176.035 220.837 176.203C220.724 176.37 220.538 176.481 220.334 176.502C218.762 176.666 217.582 176.495 216.784 176.049Z" fill="#FDA31F"/>
<path fill-rule="evenodd" clip-rule="evenodd" d="M225.187 179.857L226.177 182.682L224.93 183.135L223.689 179.593C223.628 179.42 223.651 179.227 223.75 179.065C223.851 178.902 224.017 178.786 224.207 178.748C226.043 178.385 227.391 178.495 228.261 178.98L228.281 178.993C229.147 179.521 229.755 180.273 230.099 181.254C230.292 181.803 230.4 182.337 230.428 182.853L229.114 182.975C229.093 182.565 229.005 182.142 228.852 181.707C228.605 181.001 228.174 180.458 227.554 180.077C227.009 179.777 226.219 179.719 225.187 179.857Z" fill="#FDA31F"/>
<path fill-rule="evenodd" clip-rule="evenodd" d="M221.217 180.524C214.996 181.405 211.312 179.744 210.066 175.763C209.285 173.374 209.438 171.23 210.483 169.329C211.439 167.59 213.161 166.045 215.679 164.723L214.959 162.67C214.845 162.344 215.031 161.979 215.375 161.854L216.397 161.483L216.811 162.664L216.413 162.808L217.108 164.789C217.213 165.089 217.064 165.428 216.761 165.576C214.265 166.804 212.546 168.227 211.637 169.88C210.753 171.491 210.66 173.309 211.324 175.342C212.44 178.908 215.9 180.113 221.594 179.197C221.904 179.148 222.199 179.314 222.297 179.594L225.158 187.755C225.216 187.922 225.197 188.107 225.107 188.266C225.016 188.425 224.862 188.543 224.681 188.591C223.071 189.019 221.633 189.168 220.371 189.046C219.278 188.988 218.251 188.796 217.288 188.47L215.566 191.241C216.992 191.597 218.5 191.787 220.086 191.813C221.931 191.827 223.756 191.518 225.562 190.888C225.906 190.769 226.272 190.932 226.385 191.255L227.562 194.613L227.986 194.459L228.399 195.639L227.351 196.019C227.007 196.144 226.635 195.981 226.521 195.656L225.338 192.279C223.58 192.826 221.806 193.091 220.012 193.078C218 193.045 216.115 192.764 214.352 192.239C214.167 192.184 214.02 192.048 213.954 191.871C213.887 191.695 213.909 191.495 214.012 191.328L216.465 187.38C216.638 187.1 216.999 186.979 217.301 187.101C218.289 187.498 219.362 187.724 220.516 187.785L220.547 187.787C221.482 187.878 222.526 187.796 223.678 187.544L221.217 180.524Z" fill="#FDA31F"/>
<path fill-rule="evenodd" clip-rule="evenodd" d="M227.756 204.168C226.066 204.522 224.315 204.708 222.523 204.708C221.038 204.708 219.834 203.482 219.834 201.973C219.834 200.463 221.038 199.237 222.523 199.237C233.816 199.237 242.985 189.911 242.985 178.424C242.985 166.937 233.816 157.611 222.523 157.611C221.038 157.611 219.834 156.385 219.834 154.875C219.834 153.365 221.038 152.14 222.523 152.14C236.785 152.14 248.364 163.917 248.364 178.424C248.364 189.176 242.002 198.429 232.902 202.498L249.76 242.948C250.34 244.338 249.701 245.945 248.335 246.533C246.969 247.123 245.389 246.473 244.809 245.083L227.756 204.168Z" fill="#DC5D3C"/>
<path fill-rule="evenodd" clip-rule="evenodd" d="M222.523 199.237C211.23 199.237 202.061 189.911 202.061 178.423C202.061 166.937 211.23 157.611 222.523 157.611C224.007 157.611 225.212 156.385 225.212 154.875C225.212 153.365 224.007 152.14 222.523 152.14C208.262 152.14 196.683 163.917 196.683 178.423C196.683 192.93 208.262 204.707 222.523 204.707C224.007 204.707 225.212 203.482 225.212 201.972C225.212 200.462 224.007 199.237 222.523 199.237Z" fill="#DC5D3C"/>
<path fill-rule="evenodd" clip-rule="evenodd" d="M258.735 213.081C258.735 213.081 257.287 207.552 257.766 200.503C258.442 190.589 264.679 181.962 273.783 178.351C282.884 174.741 293.217 176.796 300.312 183.627C301.951 185.212 303.445 187.073 304.702 189.264C310.88 200.034 312.884 211.908 307.68 223.639C307.68 223.639 311.033 246.041 306.203 262.188C303.766 270.299 296.851 276.18 288.573 277.185C288.294 277.223 288.014 277.256 287.73 277.29C280.169 278.208 272.754 274.684 268.592 268.2C260.489 255.572 248.026 236.151 248.026 236.151C248.026 236.151 240.974 236.775 238.249 237.016C237.275 237.105 236.402 236.405 236.259 235.421C236.18 234.831 236.362 234.181 237.191 233.631C237.191 233.631 236.315 233.624 235.629 233.454C234.547 233.189 234.113 232.247 234.066 231.239C234.022 230.29 234.298 229.194 235.567 228.551C233.968 228.857 232.419 227.819 232.066 226.206C232.051 226.141 232.037 226.079 232.026 226.021C231.896 225.434 231.978 224.821 232.256 224.291C232.518 223.786 232.97 223.234 233.743 222.901C233.743 222.901 232.99 222.663 232.177 222.407C231.002 222.036 230.2 220.931 230.2 219.68V219.678C230.2 218.569 230.859 217.567 231.869 217.143C234.063 216.218 237.646 214.71 237.646 214.71C237.646 214.71 233.031 208.723 234.95 206.963C235.291 206.651 236.053 206.469 238.291 208.408C239.137 209.14 242.419 210.075 246.573 209.495C246.573 209.495 252.006 209.461 258.735 213.081ZM263.73 148.655C270.791 148.655 276.524 154.486 276.524 161.669C276.524 168.852 270.791 174.684 263.73 174.684C256.667 174.684 250.934 168.852 250.934 161.669C250.934 154.486 256.667 148.655 263.73 148.655Z" fill="#A8CFCC"/>
<path fill-rule="evenodd" clip-rule="evenodd" d="M247.592 236.19L250.395 235.868C250.764 235.826 251.096 236.096 251.138 236.472C251.18 236.846 250.915 237.185 250.545 237.227L248.841 237.422L248.026 236.15L247.592 236.19ZM234.408 232.541L242.508 231.78C242.877 231.745 243.205 232.022 243.239 232.398C243.274 232.774 243.002 233.107 242.632 233.141L237.151 233.656C237.163 233.647 237.176 233.639 237.19 233.63C237.19 233.63 236.314 233.623 235.628 233.454C235.048 233.312 234.655 232.977 234.408 232.541ZM232.956 227.785C233.016 227.749 233.085 227.722 233.158 227.705L240.66 226.06C241.022 225.98 241.38 226.216 241.459 226.585C241.536 226.952 241.306 227.317 240.943 227.397L235.482 228.595C235.509 228.58 235.537 228.565 235.566 228.551C234.591 228.737 233.635 228.424 232.956 227.785ZM231.599 222.15L239.603 219.642C239.958 219.531 240.334 219.733 240.444 220.093C240.553 220.454 240.353 220.837 239.998 220.948L233.677 222.93C233.699 222.919 233.721 222.909 233.742 222.901C233.742 222.901 232.989 222.663 232.176 222.407C231.973 222.342 231.779 222.256 231.599 222.15ZM236.833 213.569L239.634 212.391C239.976 212.246 240.37 212.412 240.513 212.761C240.654 213.111 240.491 213.511 240.148 213.655L237.643 214.708C237.622 214.679 237.282 214.236 236.833 213.569Z" fill="#82B5B2"/>
<path fill-rule="evenodd" clip-rule="evenodd" d="M258.67 212.824C258.396 211.658 257.346 206.66 257.764 200.504C258.44 190.59 264.677 181.963 273.78 178.352C282.881 174.742 293.215 176.797 300.309 183.628C301.948 185.213 303.442 187.075 304.7 189.265C310.878 200.036 312.881 211.909 307.678 223.641C307.678 223.641 311.031 246.042 306.2 262.19C303.763 270.3 296.849 276.181 288.571 277.187C288.292 277.224 288.011 277.257 287.727 277.291C280.167 278.209 272.751 274.686 268.59 268.201L263.042 259.555L281.905 237.131C272.044 221.517 261.304 214.412 258.67 212.824Z" fill="url(#paint0_linear_1_13332)"/>
<path fill-rule="evenodd" clip-rule="evenodd" d="M281.834 237.018C281.868 237.051 281.9 237.09 281.927 237.131L294.111 255.838C294.316 256.154 294.232 256.578 293.922 256.787C293.613 256.995 293.196 256.908 292.991 256.594L281.009 238.198L281.906 237.131L281.834 237.018ZM307.797 224.505L307.827 224.748L307.79 224.827C307.79 224.827 305.099 209.589 301.239 197.939C301.146 197.698 301.254 197.426 301.482 197.317C301.711 197.206 301.985 197.295 302.111 197.518C304.167 201.579 306.985 207.657 310.11 215.836C310.064 216.078 310.017 216.321 309.967 216.562L309.965 216.571L309.942 216.684L309.94 216.694L309.915 216.808L309.913 216.815C309.863 217.056 309.807 217.297 309.75 217.537L309.748 217.545L309.722 217.655L309.718 217.672L309.693 217.778L309.686 217.798L309.661 217.903L309.656 217.921L309.629 218.029L309.627 218.036C309.587 218.193 309.545 218.35 309.503 218.509L309.5 218.52L309.473 218.621L309.464 218.65L309.439 218.742L309.429 218.778L309.404 218.869L309.394 218.906L309.369 218.995L309.358 219.033L309.332 219.123L309.323 219.154L309.295 219.25C309.283 219.291 309.271 219.332 309.258 219.373L309.226 219.479L309.221 219.496L309.195 219.581L309.182 219.626L309.157 219.705L309.142 219.756L309.118 219.831L309.101 219.886L309.078 219.959L309.059 220.016L309.036 220.089L309.017 220.146L308.994 220.217L308.975 220.276L308.952 220.347L308.928 220.416L308.911 220.47L308.89 220.532L308.868 220.599L308.846 220.664L308.822 220.73L308.8 220.794L308.777 220.86L308.755 220.924L308.732 220.992L308.71 221.053L308.684 221.124L308.663 221.183L308.637 221.257L308.617 221.313L308.585 221.399L308.568 221.443L308.521 221.571L308.505 221.614L308.473 221.701L308.453 221.754L308.424 221.831L308.402 221.888L308.374 221.963L308.352 222.019L308.323 222.095L308.301 222.151L308.271 222.228L308.249 222.281L308.216 222.365L308.197 222.411L308.153 222.519L308.145 222.541L308.091 222.671L308.076 222.71L308.037 222.801L308.017 222.852L307.984 222.932L307.962 222.985L307.928 223.062L307.906 223.117L307.873 223.196L307.849 223.249L307.815 223.329L307.794 223.379L307.755 223.467L307.737 223.509L307.679 223.64L307.689 223.709L307.691 223.731L307.701 223.794L307.705 223.825L307.718 223.915L307.723 223.95L307.738 224.071L307.743 224.107L307.765 224.261L307.768 224.292L307.794 224.486L307.797 224.505ZM265.04 217.479C265.04 217.479 264.4 212.444 263.537 197.647C263.517 197.317 263.741 197.214 263.863 197.187C264.082 197.137 264.248 197.281 264.268 197.407L267.874 219.992C266.877 219.06 265.929 218.224 265.04 217.479Z" fill="#28625E"/>
<path fill-rule="evenodd" clip-rule="evenodd" d="M253.763 153.512C256.109 150.551 259.703 148.655 263.73 148.655C270.791 148.655 276.524 154.486 276.524 161.669C276.524 165.733 274.688 169.365 271.816 171.752L267.35 167.24C267.826 167.205 268.317 167.077 268.792 166.847C270.475 166.032 270.907 163.89 270.26 162.507C269.611 161.124 267.72 160.663 266.039 161.478C264.948 162.006 264.617 163.301 264.412 164.271L253.763 153.512Z" fill="black"/>
<path d="M141.066 189.464C153.625 189.464 163.806 179.108 163.806 166.333C163.806 153.558 153.625 143.202 141.066 143.202C128.507 143.202 118.326 153.558 118.326 166.333C118.326 179.108 128.507 189.464 141.066 189.464Z" fill="#A8CFCC"/>
<path fill-rule="evenodd" clip-rule="evenodd" d="M118.9 161.137C119.065 161.062 119.266 161.019 119.508 161.062C119.987 161.148 120.327 161.565 120.341 162.041C120.5 162.328 120.93 163.079 121.442 163.786C122.652 165.458 124.693 167.859 127.518 170.309C128.812 164.677 131.29 159.981 134.029 156.215C129.984 153.04 127.758 150.115 127.306 149.557C126.952 149.12 127.014 148.473 127.442 148.113C127.873 147.753 128.508 147.815 128.863 148.252C129.295 148.784 131.414 151.568 135.27 154.591C140.524 148.037 146.215 144.774 146.215 144.774C146.699 144.496 147.314 144.67 147.588 145.164C147.862 145.657 147.691 146.283 147.205 146.561C147.205 146.561 141.852 149.631 136.888 155.797C140.732 158.515 145.959 161.213 152.605 162.465C153.319 157.534 153.059 152.952 152.556 149.556C152.474 148.996 152.854 148.473 153.403 148.389C153.955 148.304 154.469 148.69 154.551 149.25C155.079 152.817 155.343 157.617 154.593 162.79C157.18 163.148 159.967 163.284 162.954 163.124C163.201 163.111 163.429 163.189 163.612 163.328C163.676 163.826 163.723 164.328 163.757 164.835C163.584 165.03 163.338 165.158 163.059 165.173C159.913 165.341 156.977 165.196 154.249 164.816C153.272 169.819 151.289 175.058 147.649 179.787C151.309 180.327 155.313 180.36 159.646 179.659C159.081 180.473 158.464 181.249 157.804 181.981C153.597 182.449 149.702 182.263 146.131 181.618C143.689 184.357 140.625 186.879 136.799 189.024C136.786 189.033 136.771 189.04 136.755 189.046C136.342 188.966 135.934 188.874 135.528 188.771C135.492 188.725 135.458 188.675 135.429 188.621C135.16 188.125 135.339 187.501 135.826 187.227C139.018 185.436 141.648 183.367 143.806 181.124C137.819 179.661 132.829 176.936 128.901 174.016C128.461 177.338 128.463 180.963 129.081 184.892C129.135 185.237 129.012 185.571 128.78 185.796C128.158 185.39 127.558 184.954 126.98 184.489C126.375 180.165 126.476 176.195 127.071 172.582C122.304 168.646 119.439 164.67 118.634 163.172C118.606 163.119 118.58 163.068 118.555 163.018C118.645 162.382 118.761 161.755 118.9 161.137ZM135.644 157.423C132.896 161.206 130.426 165.981 129.274 171.754C133.352 174.934 138.749 177.973 145.368 179.377C149.213 174.73 151.269 169.492 152.259 164.491C145.22 163.171 139.693 160.303 135.644 157.423ZM119.5 163.084C119.453 163.092 119.405 163.097 119.356 163.098C119.308 163.099 119.259 163.097 119.21 163.09C119.315 163.104 119.411 163.101 119.5 163.084Z" fill="#82B5B2"/>
<path fill-rule="evenodd" clip-rule="evenodd" d="M63.4419 210.023C63.4419 210.023 30.023 183.127 53.2364 151.27C55.7071 147.88 70.6996 128.118 92.0044 114.723C92.8362 114.198 93.907 114.285 94.6465 114.938C95.118 115.364 95.4246 116.015 95.1205 117.015C95.1205 117.015 98.4177 116.284 98.1904 119.506C98.1904 119.506 102.051 118.453 102.185 122.498C102.185 122.498 108.569 114.542 111.349 111.076C112.078 110.168 113.352 109.941 114.34 110.545C114.341 110.545 114.341 110.545 114.341 110.545C114.789 110.819 115.112 111.263 115.238 111.78C115.365 112.296 115.284 112.842 115.014 113.298C103.148 133.287 90.5349 151.626 77.8839 169.882C77.8839 169.882 88.3196 180.62 93.6972 184.486C95.8809 186.054 117.702 199.922 120.857 207.517C120.857 207.517 121.123 205.776 121.427 203.795C121.952 200.358 124.442 197.575 127.753 196.717C129.998 196.135 132.083 195.595 132.083 195.595C132.083 195.595 135.807 194.949 138.979 194.975C141.056 194.99 142.892 196.349 143.547 198.353C143.848 199.278 143.722 200.292 143.201 201.109C142.907 201.572 142.646 201.979 142.646 201.979C142.646 201.979 143.394 202.237 144.088 202.477C144.828 202.731 145.425 203.294 145.732 204.024C146.331 205.446 146.073 207.093 145.07 208.257C144.757 208.621 144.525 208.889 144.525 208.889H144.752C145.936 208.889 146.999 209.621 147.442 210.739C148.048 212.275 147.557 214.032 146.25 215.015C145.925 215.258 145.7 215.429 145.7 215.429C146.11 215.287 146.494 215.574 146.762 216.232C147.295 217.533 146.806 219.036 145.646 219.807C143.838 221.009 141.451 222.596 141.451 222.596C140.915 233.816 139.582 245.919 133.321 260.343C131.432 264.68 127.716 267.913 123.212 269.139C123.208 269.142 123.205 269.142 123.201 269.144C113.772 271.709 103.891 267.04 99.7364 258.057C97.742 253.74 95.612 248.42 93.6972 242.154C93.6972 242.154 85.7707 243.207 77.8839 239.145C68.4092 234.266 58.9919 223.204 63.4419 210.023Z" fill="url(#paint1_linear_1_13332)"/>
<path fill-rule="evenodd" clip-rule="evenodd" d="M49.192 191.701C50.1874 188.593 53.6615 181.612 64.6939 182.269C64.6939 182.269 68.6069 170.663 80.9794 172.998C84.4888 176.479 90.1776 181.956 93.6983 184.486C95.8819 186.054 117.703 199.923 120.858 207.517L120.895 207.279C122.931 213.359 126.63 226.407 124.771 240.527C124.771 240.527 117.445 245.51 110.32 239.249C110.32 239.249 103.574 248.352 93.8195 242.547C93.7788 242.416 93.7384 242.286 93.6983 242.154C93.6983 242.154 85.7718 243.207 77.8849 239.145C68.4103 234.266 58.9929 223.204 63.4429 210.023C63.4429 210.023 54.6207 202.923 49.192 191.701ZM95.5718 181.46L98.4426 183.277C97.4072 182.797 96.4431 182.185 95.5718 181.46Z" fill="#FD9500"/>
<path fill-rule="evenodd" clip-rule="evenodd" d="M123.765 237.243L122.136 255.953C122.103 256.33 122.377 256.663 122.747 256.695C123.116 256.73 123.442 256.451 123.476 256.075L125.103 237.364C125.136 236.988 124.862 236.655 124.493 236.622C124.123 236.588 123.797 236.867 123.765 237.243Z" fill="#FD9500"/>
<path fill-rule="evenodd" clip-rule="evenodd" d="M88.8604 242.182C88.2874 235.337 89.8176 229.77 90.8407 226.932C90.9227 226.734 91.1301 226.625 91.3365 226.667C91.5427 226.71 91.691 226.895 91.6906 227.108C91.8888 232.673 93.3291 240.17 93.7933 242.466C93.7612 242.362 93.7292 242.259 93.6975 242.155C93.6975 242.155 91.7654 242.411 88.8604 242.182ZM58.7837 205.541C61.2166 202.471 63.6218 200.147 65.8609 198.388C69.309 195.678 72.3631 194.307 74.5165 193.606C74.7656 193.55 75.0193 193.683 75.1191 193.921C75.2189 194.16 75.1366 194.437 74.9234 194.581C68.4086 199.115 64.6931 206.967 63.4359 210.019C63.3127 209.918 61.3674 208.33 58.7837 205.541Z" fill="#E15D33"/>
<path fill-rule="evenodd" clip-rule="evenodd" d="M145.713 215.425C146.119 215.295 146.496 215.584 146.761 216.233C146.776 216.269 146.79 216.305 146.803 216.341C145.561 217.131 142.86 218.69 140.393 219.037C140.025 219.088 139.685 218.827 139.635 218.454C139.583 218.08 139.84 217.734 140.208 217.683C142.252 217.396 144.464 216.194 145.713 215.425ZM144.526 208.89H144.751C145.299 208.89 145.822 209.048 146.269 209.328C145.528 209.879 142.575 211.971 139.48 212.72C139.119 212.807 138.758 212.58 138.67 212.212C138.584 211.846 138.808 211.477 139.169 211.39C141.282 210.877 143.323 209.687 144.526 208.89ZM142.654 201.983L143.991 202.445C142.759 204.064 140.448 206.471 137.23 207.128C136.867 207.203 136.512 206.962 136.438 206.593C136.366 206.222 136.601 205.861 136.966 205.787C139.583 205.252 141.516 203.399 142.654 201.983Z" fill="#FD9500"/>
<path fill-rule="evenodd" clip-rule="evenodd" d="M133.66 197.473C133.66 197.473 131.366 197.988 128.947 197.637C128.579 197.584 128.24 197.846 128.186 198.219C128.134 198.593 128.391 198.938 128.757 198.991C131.421 199.378 133.949 198.81 133.949 198.81C134.311 198.728 134.541 198.362 134.46 197.995C134.381 197.625 134.022 197.393 133.66 197.473Z" fill="#FD9500"/>
<path fill-rule="evenodd" clip-rule="evenodd" d="M101.814 120.812C102.024 121.241 102.162 121.792 102.185 122.499L103.2 121.234C103.18 121.271 103.157 121.306 103.13 121.339L100.614 124.438C100.378 124.729 99.9537 124.77 99.6677 124.529C99.3816 124.289 99.3411 123.858 99.5774 123.567L101.814 120.812ZM97.8497 117.821C98.1 118.203 98.2435 118.743 98.1903 119.504L96.6307 121.32C96.3866 121.605 95.9616 121.634 95.682 121.386C95.4025 121.137 95.3738 120.705 95.6178 120.421L97.8497 117.821ZM94.957 115.295C95.2313 115.706 95.3496 116.261 95.1202 117.016H95.1203C94.2786 117.823 93.3078 118.759 93.3078 118.759C93.0385 119.019 92.6126 119.008 92.3573 118.734C92.102 118.46 92.1133 118.027 92.3825 117.767C92.3825 117.767 94.1016 116.109 94.957 115.295Z" fill="#FD9500"/>
<path fill-rule="evenodd" clip-rule="evenodd" d="M77.8823 169.882C77.8823 169.882 73.4454 165.425 70.8175 162.786C70.637 162.604 70.6096 162.321 70.7519 162.108C70.8941 161.896 71.1668 161.813 71.4031 161.911C74.8712 163.347 80.755 165.782 80.755 165.782L77.8823 169.882Z" fill="#FD9500"/>
<path fill-rule="evenodd" clip-rule="evenodd" d="M131.491 199.079L132.511 191.468C130.881 190.893 129.284 190.145 127.743 189.211C126.467 188.44 126.047 186.76 126.805 185.462C127.564 184.164 129.217 183.739 130.491 184.51C140.197 190.382 152.764 187.132 158.538 177.26C164.309 167.387 161.116 154.604 151.41 148.732C150.134 147.96 149.714 146.28 150.473 144.983C151.231 143.685 152.884 143.258 154.159 144.03C166.417 151.445 170.449 167.588 163.16 180.056C157.756 189.298 147.64 193.943 137.773 192.709L137.11 197.66C135.893 198.247 133.876 199.006 131.491 199.079Z" fill="#DC5D3C"/>
<path fill-rule="evenodd" clip-rule="evenodd" d="M130.492 184.508C120.785 178.636 117.592 165.853 123.364 155.98C129.137 146.107 141.703 142.859 151.41 148.731C152.685 149.502 154.337 149.075 155.096 147.778C155.854 146.48 155.435 144.8 154.159 144.028C141.902 136.613 126.031 140.716 118.741 153.184C111.452 165.652 115.485 181.795 127.743 189.21C129.018 189.981 130.67 189.554 131.428 188.257C132.187 186.959 131.767 185.279 130.492 184.508Z" fill="#DC5D3C"/>
<path d="M103.92 184.486C111.221 184.486 117.14 178.465 117.14 171.038C117.14 163.611 111.221 157.59 103.92 157.59C96.6181 157.59 90.699 163.611 90.699 171.038C90.699 178.465 96.6181 184.486 103.92 184.486Z" fill="#FFBB22"/>
<path fill-rule="evenodd" clip-rule="evenodd" d="M99.3227 176.35C96.9378 176.768 94.3999 176.827 91.7674 176.339C91.08 174.712 90.699 172.92 90.699 171.038C90.699 163.616 96.623 157.59 103.92 157.59C109.736 157.59 114.68 161.418 116.447 166.73C115.893 169.259 111.733 174.309 103.187 175.339C103.463 174.62 103.486 173.746 103.188 172.896C102.605 171.228 101.008 170.28 99.625 170.781C98.2423 171.282 97.5937 173.043 98.1776 174.711C98.4171 175.395 98.827 175.958 99.3227 176.35Z" fill="black"/>
<path d="M108.479 156.645C113.459 156.645 117.496 152.539 117.496 147.474C117.496 142.409 113.459 138.302 108.479 138.302C103.5 138.302 99.4629 142.409 99.4629 147.474C99.4629 152.539 103.5 156.645 108.479 156.645Z" fill="black"/>
<path fill-rule="evenodd" clip-rule="evenodd" d="M204.115 118.359C199.249 127.737 189.563 134.133 178.419 134.133C162.388 134.133 149.371 120.892 149.371 104.584C149.371 94.6602 154.191 85.8725 161.583 80.5199L178.419 104.584L204.115 118.359Z" fill="#E5734E"/>
<path fill-rule="evenodd" clip-rule="evenodd" d="M178.421 104.584L161.584 80.5202C165.8 77.4546 170.857 75.5138 176.333 75.1206L178.421 104.584Z" fill="#FFBB22"/>
<path fill-rule="evenodd" clip-rule="evenodd" d="M177.086 75.0693L178.417 75.0352C186.584 75.0352 193.969 78.4707 199.245 84.0033L178.417 104.583L176.33 75.1196L176.723 75.089L177.086 75.0693Z" fill="#A8CFCC"/>
<path fill-rule="evenodd" clip-rule="evenodd" d="M207.097 82.2716C212.186 87.5886 215.319 94.851 215.319 102.852C215.319 107.826 214.107 112.515 211.964 116.627L186.269 102.852L207.097 82.2716Z" fill="#FFCBC4"/>
<defs>
<linearGradient id="paint0_linear_1_13332" x1="257.667" y1="227.017" x2="330.32" y2="284.098" gradientUnits="userSpaceOnUse">
<stop stop-color="#82B5B2"/>
<stop offset="0.57" stop-color="#9AC1BB"/>
<stop offset="0.8" stop-color="#CED9CF"/>
<stop offset="1" stop-color="#FFF1E2"/>
</linearGradient>
<linearGradient id="paint1_linear_1_13332" x1="98.3735" y1="236.187" x2="33.0741" y2="252.858" gradientUnits="userSpaceOnUse">
<stop stop-color="#FFBB22"/>
<stop offset="0.47" stop-color="#FEB019"/>
<stop offset="1" stop-color="#FD9500"/>
</linearGradient>
</defs>
</svg>
