<svg width="350" height="350" viewBox="0 0 350 350" fill="none" xmlns="http://www.w3.org/2000/svg">
<path fill-rule="evenodd" clip-rule="evenodd" d="M86.2297 227.331H131.769V231.394H87.7101L98.7684 262.527H94.6127L65.9888 183.654L69.8053 182.263L86.2297 227.331Z" fill="black"/>
<path fill-rule="evenodd" clip-rule="evenodd" d="M52.8788 257.925C52.8788 257.925 53.4402 231.561 53.87 211.377C54.1451 198.451 64.3276 187.916 77.2373 187.203C105.763 185.61 133.925 185.205 161.506 186.688C174.903 187.41 185.965 197.413 188.027 210.67C188.034 210.669 188.034 210.669 188.034 210.669C189.163 217.92 187.193 225.311 182.604 231.037C176.781 238.277 166.95 248.363 151.727 257.984C151.727 257.984 157.357 259.611 157.932 262.126C157.932 262.126 115.101 262.076 104.185 262.064C103.783 262.063 103.423 261.816 103.278 261.441C103.132 261.066 103.232 260.64 103.529 260.37C111.197 253.361 140.073 226.967 140.073 226.967L91.3651 227.462C91.3651 227.462 90.5827 254.692 90.3989 261.088C90.3776 261.829 89.768 262.418 89.0265 262.413C81.706 262.362 46.7482 262.122 46.7482 262.122C46.7482 262.122 46.5072 259.566 52.8788 257.925Z" fill="url(#paint0_linear_1_12980)"/>
<path fill-rule="evenodd" clip-rule="evenodd" d="M163.156 249.958L125.87 239.947L126.992 238.921L164.41 248.968C163.998 249.297 163.58 249.627 163.156 249.958ZM91.051 238.393L53.2753 239.305L53.3026 238.023L91.0879 237.111L91.051 238.393Z" fill="#82B5B2"/>
<path fill-rule="evenodd" clip-rule="evenodd" d="M140.01 227.024L153.264 226.993C153.39 226.993 153.498 227.085 153.517 227.211C153.536 227.336 153.462 227.457 153.34 227.495L132.294 234.078L140.01 227.024ZM91.364 227.5L91.1925 233.473L80.0135 228.441C79.797 228.343 79.6781 228.108 79.728 227.876C79.7781 227.643 79.9836 227.477 80.221 227.479L91.364 227.5Z" fill="#346864"/>
<path fill-rule="evenodd" clip-rule="evenodd" d="M156.119 131.671C156.119 131.671 143.248 114.292 114.293 121.882C110.394 122.904 79.51 132.706 67.3267 160.245C66.1354 162.938 59.7122 175.182 69.0241 181.727C75.5211 186.295 82.4878 185.448 106.899 177.279C108.965 176.587 121.689 173.899 119.389 170.961C119.389 170.961 120.415 171.168 120.908 170.485C120.908 170.485 120.965 170.837 121.006 171.097C121.035 171.275 121.119 171.44 121.246 171.567C121.83 172.148 123.583 173.895 124.685 174.995C124.875 175.183 125.152 175.255 125.409 175.18C125.666 175.107 125.863 174.9 125.924 174.638C126.249 173.237 126.723 171.195 126.723 171.195C126.723 171.195 138.304 173.708 145.283 162.424C145.283 162.424 145.574 173.57 154.203 178.069C156.723 179.384 170.715 182.175 174.387 167.745C176.954 157.651 178.829 139.616 180.471 126.657C180.471 126.657 189.045 121.274 189.693 118.696C189.926 117.77 188.986 116.249 186.89 117.788C186.89 117.788 190.02 115.126 188.976 113.872C188.394 113.175 187.204 113.138 184.847 115.157C184.847 115.157 187.783 112.149 186.442 110.946C184.999 109.653 183.325 112.312 181.79 113.743C181.79 113.743 185.205 108.498 183.274 107.593C182.455 107.209 181.571 107.161 178.59 110.915C175.829 114.391 171.914 114.75 169.076 114.409C169.076 114.409 170.193 107.859 168.914 107.224C167.468 106.507 166.166 107.789 163.026 114.23C159.925 120.587 158.379 126.885 156.119 131.671Z" fill="url(#paint1_linear_1_12980)"/>
<path fill-rule="evenodd" clip-rule="evenodd" d="M122.049 120.366C144.439 117.552 155.084 130.351 156.047 131.577C154.587 136.786 152.082 147.916 152.082 147.916L149.447 147.879C149.489 154.382 145.296 162.155 145.296 162.155L145.28 162.428C138.643 173.152 127.704 171.373 126.671 171.22L127.008 169.524L126.131 167.064L125.858 166.366C125.858 166.366 127.068 164.745 128.14 163.308C129.045 162.095 128.834 160.385 127.661 159.43C125.316 157.518 121.844 154.687 121.844 154.687C121.824 154.672 121.804 154.656 121.784 154.641C118.994 152.507 115.469 151.572 111.989 152.044C104.613 153.043 89.7832 155.051 89.7832 155.051L80.8299 141.208C91.2753 131.131 103.528 125.64 110.052 123.258L122.049 120.366Z" fill="#82B5B2"/>
<path fill-rule="evenodd" clip-rule="evenodd" d="M120.912 170.511C121.162 170.207 121.988 169.06 121.247 167.954L120.205 166.694C120.205 166.694 121.667 166.904 122.261 166.848C122.261 166.848 122.179 168.311 123.388 168.566C123.719 168.634 124.06 168.511 124.27 168.246C124.853 167.513 126.159 165.866 126.159 165.866C126.159 165.866 126.888 169.01 127.019 169.578C127.033 169.636 127.033 169.696 127.02 169.753C126.9 170.296 126.264 173.173 126.264 173.173L125.924 174.638C125.863 174.9 125.666 175.107 125.409 175.18C125.152 175.255 124.875 175.183 124.685 174.995C123.583 173.895 121.83 172.148 121.246 171.567C121.119 171.439 121.035 171.275 121.006 171.097L120.912 170.511ZM115.75 152.044C115.75 152.044 120.39 152.723 123.367 156.024L121.316 146.126L114.52 146.166L115.75 152.044Z" fill="#FFBF2F"/>
<path fill-rule="evenodd" clip-rule="evenodd" d="M126.3 173.012L126.264 173.173L125.924 174.638C125.863 174.899 125.666 175.107 125.409 175.18C125.152 175.254 124.875 175.183 124.685 174.994L123.125 173.439L126.3 173.012ZM121.694 166.848C121.913 166.859 122.114 166.862 122.261 166.848C122.261 166.848 122.179 168.311 123.388 168.566C123.52 168.593 123.652 168.59 123.778 168.559L123.966 169.434L126.795 168.611L127.019 169.578C127.026 169.608 127.03 169.638 127.03 169.668L121.123 171.411C121.064 171.316 121.024 171.209 121.006 171.097L120.912 170.51C120.957 170.456 121.02 170.375 121.09 170.271L122.354 169.903L121.694 166.848ZM118.679 152.888L117.223 146.15L118.957 146.14L120.609 153.823C119.946 153.438 119.288 153.131 118.679 152.888Z" fill="black"/>
<path fill-rule="evenodd" clip-rule="evenodd" d="M119.637 171.918L115.74 171.607C115.458 171.584 115.247 171.337 115.27 171.055C115.292 170.773 115.539 170.562 115.821 170.585L120.211 170.936C119.79 171.042 119.389 170.961 119.389 170.961C119.641 171.284 119.713 171.604 119.637 171.918ZM121.402 167.086C121.438 167.059 121.478 167.036 121.522 167.019C121.522 167.019 122.013 166.826 122.536 166.621C123.152 166.38 123.609 165.85 123.759 165.205C123.759 165.205 123.759 165.205 123.759 165.205C124.064 163.89 123.515 162.525 122.385 161.787C121.101 160.948 119.728 160.051 119.728 160.051C119.491 159.896 119.424 159.579 119.579 159.342C119.733 159.105 120.051 159.038 120.288 159.193L122.844 160.862L122.912 160.282C122.945 160.001 123.2 159.799 123.481 159.832C123.762 159.866 123.963 160.12 123.93 160.401L123.783 161.648C124.691 162.659 125.074 164.069 124.757 165.436C124.757 165.437 124.757 165.437 124.757 165.437C124.532 166.41 123.841 167.21 122.91 167.575C122.387 167.781 121.896 167.973 121.896 167.973C121.714 168.045 121.515 168.004 121.375 167.885C121.246 167.982 121.073 168.016 120.908 167.961L116.535 166.519C116.267 166.43 116.12 166.14 116.209 165.872C116.298 165.603 116.588 165.457 116.856 165.545L121.229 166.988C121.294 167.01 121.353 167.043 121.402 167.086ZM152.263 142.303C152.263 142.303 148.53 157.957 147.711 164.948C147.678 165.229 147.879 165.484 148.161 165.517C148.441 165.55 148.696 165.348 148.728 165.067C149.544 158.113 153.261 142.541 153.261 142.541C153.326 142.266 153.156 141.99 152.88 141.924C152.606 141.858 152.33 142.028 152.263 142.303ZM92.5398 153.001C83.6523 154.993 78.2221 156.685 75.5827 158.155C75.2739 158.327 75.1627 158.717 75.3347 159.026C75.5066 159.335 75.897 159.446 76.2059 159.274C78.7906 157.835 84.1161 156.202 92.8201 154.251C93.165 154.174 93.3824 153.831 93.305 153.486C93.2276 153.141 92.8848 152.924 92.5398 153.001ZM180.629 126.555C180.526 126.622 180.471 126.657 180.471 126.657C180.351 127.595 180.231 128.56 180.111 129.546L177.482 128.855C177.382 128.828 177.307 128.744 177.295 128.641C177.281 128.538 177.33 128.438 177.42 128.386L180.629 126.555ZM189.142 114.172C189.574 115.506 186.89 117.788 186.89 117.788C186.967 117.731 187.043 117.679 187.116 117.63C185.244 119.346 182.716 121.382 180.276 122.457C180.017 122.571 179.715 122.453 179.601 122.194C179.487 121.935 179.604 121.633 179.863 121.519C183.972 119.71 188.329 115.065 189.142 114.172ZM186.792 111.799C186.768 113.188 184.847 115.157 184.847 115.157C184.988 115.035 185.126 114.921 185.261 114.814C183.375 116.627 180.643 119.023 178.244 120.242C177.992 120.37 177.683 120.269 177.555 120.017C177.427 119.765 177.528 119.456 177.78 119.328C181.65 117.362 186.402 112.225 186.792 111.799ZM183.662 109.906C183.14 111.67 181.79 113.743 181.79 113.743C181.832 113.704 181.875 113.664 181.916 113.623C180.353 115.259 178.243 117.05 175.869 117.95C175.604 118.051 175.308 117.917 175.208 117.653C175.108 117.388 175.241 117.092 175.505 116.992C179.603 115.438 182.855 111.065 183.662 109.906Z" fill="#82B5B2"/>
<path fill-rule="evenodd" clip-rule="evenodd" d="M105.497 152.924L109.459 148.718C109.637 148.529 109.914 148.469 110.155 148.568C110.395 148.666 110.55 148.903 110.544 149.163L110.477 152.25L105.497 152.924ZM149.438 148.514C149.427 147.956 149.347 144.65 149.006 142.382C148.981 142.274 149.04 142.165 149.144 142.127C149.246 142.088 149.363 142.133 149.413 142.231C150.153 143.641 151.278 145.928 151.922 147.915L149.447 147.881C149.448 148.091 149.445 148.302 149.438 148.514Z" fill="#346864"/>
<path d="M121.085 116.583C126.607 116.583 131.084 112.091 131.084 106.55C131.084 101.009 126.607 96.5176 121.085 96.5176C115.562 96.5176 111.086 101.009 111.086 106.55C111.086 112.091 115.562 116.583 121.085 116.583Z" fill="#99C3C0"/>
<path fill-rule="evenodd" clip-rule="evenodd" d="M114.437 114.042C112.381 112.204 111.086 109.528 111.086 106.55C111.086 101.013 115.566 96.5176 121.085 96.5176C124.465 96.5176 127.456 98.204 129.266 100.784L121.077 108.106C120.979 107.817 120.829 107.536 120.627 107.277C119.771 106.183 118.299 105.903 117.342 106.652C116.384 107.402 116.301 108.898 117.157 109.991C117.422 110.331 117.748 110.592 118.099 110.769L114.437 114.042Z" fill="black"/>
<path d="M232.403 123.925H224.762L227.984 135.024H235.625L232.403 123.925Z" fill="white"/>
<path fill-rule="evenodd" clip-rule="evenodd" d="M228.173 134.77H230.585C230.724 134.77 230.838 134.883 230.838 135.023C230.838 135.163 230.724 135.276 230.585 135.276H227.983C227.871 135.276 227.772 135.202 227.741 135.094L224.519 123.995C224.497 123.919 224.512 123.837 224.56 123.773C224.608 123.709 224.682 123.672 224.762 123.672H230.122C230.262 123.672 230.375 123.785 230.375 123.925C230.375 124.065 230.262 124.178 230.122 124.178H225.099L228.173 134.77Z" fill="black"/>
<path fill-rule="evenodd" clip-rule="evenodd" d="M232.213 124.178H230.122C229.982 124.178 229.869 124.065 229.869 123.925C229.869 123.785 229.982 123.672 230.122 123.672H232.403C232.515 123.672 232.614 123.746 232.645 123.854L235.867 134.952C235.889 135.029 235.875 135.111 235.827 135.175C235.779 135.239 235.704 135.276 235.625 135.276H230.585C230.445 135.276 230.331 135.163 230.332 135.023C230.332 134.883 230.446 134.77 230.585 134.77H235.287L232.213 124.178Z" fill="black"/>
<path d="M232.076 124.921H225.75L226.174 126.149H232.5L232.076 124.921Z" fill="black"/>
<path d="M232.696 126.938H226.37L226.794 128.165H233.12L232.696 126.938Z" fill="black"/>
<path d="M233.317 128.954H226.991L227.415 130.181H233.741L233.317 128.954Z" fill="black"/>
<path d="M233.937 130.967H227.611L228.035 132.194H234.361L233.937 130.967Z" fill="black"/>
<path d="M234.557 132.983H228.231L228.655 134.211H234.981L234.557 132.983Z" fill="black"/>
<path fill-rule="evenodd" clip-rule="evenodd" d="M234.162 130.297C233.912 129.592 232.421 125.184 233.573 123.313C233.651 123.191 233.775 123.106 233.916 123.079C234.326 123.013 235.2 123.186 236.436 125.179C236.436 125.179 247.661 142.038 251.713 144.557C251.713 144.557 251.821 131.683 266.978 129.579C269.081 129.287 283.868 126.412 292.155 146.929C294.897 153.717 294.866 159.144 294.817 164.945C294.785 169.543 292.399 173.805 288.493 176.232C283.375 179.415 277.028 179.912 271.477 177.563C267.753 175.994 262.946 174.399 257.49 173.596L245.511 172.438C245.511 172.438 246.11 175.711 241.15 175.081C241.15 175.081 237.246 174.566 238.026 171.947C238.026 171.947 235.394 171.521 235.938 168.978C235.938 168.978 233.443 167.031 235.658 164.655C235.658 164.655 228.457 164.569 226.993 161.139C226.87 160.843 226.862 160.51 226.974 160.208C227.108 159.835 227.457 159.438 228.306 159.409C228.306 159.409 238.268 159.256 240.889 158.505L235.194 148.817C235.194 148.817 230.759 146.38 229.737 142.483C228.684 142.487 227.79 141.675 227.709 140.608C227.64 139.696 228.188 138.878 229 138.565L228.534 138.6C227.432 138.683 226.471 137.857 226.388 136.755C226.322 135.867 226.847 135.069 227.631 134.751C226.567 134.8 225.651 133.993 225.571 132.926C225.489 131.838 226.305 130.889 227.391 130.807L234.162 130.297Z" fill="url(#paint2_linear_1_12980)"/>
<path fill-rule="evenodd" clip-rule="evenodd" d="M245.347 173.701C243.003 173.566 241.121 174.129 241.121 174.129C240.781 174.231 240.424 174.038 240.323 173.699C240.222 173.361 240.414 173.004 240.753 172.901C240.753 172.901 243.491 172.08 246.598 172.544L245.511 172.439C245.511 172.439 245.624 173.055 245.347 173.701ZM236.82 171.447C237.269 170.087 238.794 167.088 243.642 166.348C243.991 166.295 244.319 166.535 244.371 166.885C244.425 167.234 244.184 167.561 243.834 167.615C239.559 168.267 238.324 170.953 238.009 171.945C237.909 171.926 237.344 171.809 236.82 171.447ZM235.013 167.805C235.639 166.469 237.347 164.298 241.936 163.443C242.283 163.379 242.619 163.608 242.683 163.956C242.748 164.303 242.517 164.638 242.17 164.703C236.445 165.769 235.92 169.06 235.938 168.979C235.938 168.979 235.365 168.532 235.013 167.805ZM234.068 164.546C234.818 163.574 237.19 160.871 240.692 160.369C241.041 160.319 241.367 160.562 241.417 160.912C241.467 161.262 241.223 161.587 240.874 161.637C238.409 161.99 236.602 163.606 235.649 164.662C235.53 164.659 234.913 164.638 234.068 164.546ZM271.327 158.062L279.148 160.811C279.481 160.929 279.848 160.753 279.966 160.419C280.082 160.086 279.907 159.72 279.574 159.603L271.752 156.853C271.418 156.736 271.053 156.912 270.935 157.245C270.818 157.579 270.994 157.945 271.327 158.062ZM240.222 157.37C241.043 157.207 250.081 155.452 256.674 155.523C257.027 155.527 257.312 155.817 257.308 156.171C257.304 156.524 257.013 156.808 256.66 156.804C249.859 156.731 240.714 158.557 240.889 158.507L240.222 157.37ZM235.194 148.819L237.176 149.71C237.434 149.829 237.544 150.134 237.426 150.391C237.306 150.647 237.001 150.759 236.745 150.64L236.085 150.332L235.194 148.819ZM233.826 129.255C234.986 129.444 235.811 130.063 236.11 130.553C236.781 131.646 236.515 132.719 235.875 133.483C235.916 133.686 235.986 133.997 236.093 134.375C236.248 134.484 236.378 134.598 236.487 134.711C237.08 135.327 237.119 135.981 237.13 136.183C237.143 136.426 237.121 136.652 237.07 136.862C237.629 137.913 238.415 138.95 239.526 139.547C239.774 139.681 239.868 139.991 239.735 140.241C239.602 140.49 239.29 140.583 239.04 140.45C238.57 140.197 238.147 139.878 237.767 139.516C237.768 139.52 237.77 139.525 237.771 139.53C238.187 140.831 237.52 142.236 236.244 142.733C234.302 143.495 231.58 143.546 230.093 143.505C229.95 143.177 229.829 142.836 229.737 142.484C229.606 142.484 233.629 142.658 235.87 141.779C236.651 141.474 237.055 140.609 236.787 139.815C236.783 139.806 236.781 139.797 236.778 139.788C236.586 139.26 236.061 138.926 235.499 138.979L234.444 139.079C234.241 139.139 234.113 139.165 234.113 139.165C234.011 139.186 233.908 139.175 233.819 139.138L227.849 139.702C228.057 139.185 228.473 138.769 229 138.566L234.255 138.067C234.567 137.968 235.037 137.785 235.438 137.484C235.815 137.201 236.139 136.805 236.107 136.239C236.1 136.128 236.078 135.765 235.749 135.422C235.342 135 234.542 134.645 233.014 134.61C232.973 134.609 232.933 134.603 232.896 134.593C231.106 134.652 229.272 134.68 227.448 134.752C226.778 134.721 226.184 134.352 225.85 133.802C228.501 133.651 231.206 133.641 233.792 133.534C234.157 133.519 234.555 133.331 234.874 133.046C234.918 132.968 234.982 132.903 235.06 132.857C235.457 132.399 235.626 131.761 235.237 131.088C234.876 130.465 234.162 130.298 234.162 130.298C234.103 130.131 233.974 129.755 233.826 129.255ZM237.066 139.181C236.893 139.254 236.866 139.33 236.854 139.355C236.88 139.316 236.914 139.281 236.951 139.251C236.986 139.223 237.024 139.2 237.066 139.181L237.075 139.178L237.066 139.181ZM236.491 137.912C236.442 137.965 236.39 138.017 236.337 138.066C236.459 138.108 236.577 138.159 236.69 138.22C236.62 138.118 236.555 138.015 236.491 137.912Z" fill="#FD9500"/>
<path fill-rule="evenodd" clip-rule="evenodd" d="M251.671 144.531L251.713 144.558C251.713 144.558 251.821 131.684 266.978 129.58C269.081 129.288 283.868 126.413 292.155 146.93C292.185 147.001 292.213 147.072 292.241 147.143C287.329 152.313 281.93 148.416 281.93 148.416C279.289 156.488 270.847 153.02 270.847 153.02L273.578 158.852C267.199 156.509 254.792 156.849 254.792 156.849C252.219 153.607 251.731 147.769 251.671 144.531Z" fill="#FD9500"/>
<path fill-rule="evenodd" clip-rule="evenodd" d="M270.592 157.989C270.592 157.989 268.944 152.671 267.758 148.847C267.705 148.675 267.792 148.492 267.958 148.424C268.124 148.356 268.315 148.427 268.397 148.587C270.497 152.693 273.662 158.88 273.662 158.88L270.592 157.989Z" fill="#E86135"/>
<path fill-rule="evenodd" clip-rule="evenodd" d="M223.75 192.418C235.643 177.992 260.27 183.343 265.691 184.058C300.78 188.684 292.997 215.638 291.729 219.08C288.944 226.635 282.238 229.557 272.232 230.573V259.894C272.232 259.894 269.177 257.166 268.475 254.068C268.475 254.068 267.271 253.994 265.188 253.785C265.188 253.785 266.773 258.086 267.607 260.351C267.722 260.661 267.677 261.007 267.488 261.277C267.299 261.549 266.991 261.71 266.66 261.71H226.815C228.985 257.749 233.258 257.782 233.258 257.782C231.588 253.601 229.866 249.535 228.171 245.384C217.259 241.024 207.637 234.552 204.702 224.996C203.563 221.289 202.89 204.976 223.75 192.418Z" fill="url(#paint3_linear_1_12980)"/>
<path fill-rule="evenodd" clip-rule="evenodd" d="M229.362 248.278C233.329 250.28 240.197 252.137 244.749 244.498C244.845 244.336 245.008 244.225 245.194 244.193C245.379 244.163 245.569 244.215 245.714 244.337C245.714 244.337 248.56 246.744 252.062 247.933C254.081 248.618 256.325 248.908 258.342 247.998C259.677 247.395 260.901 246.264 261.902 244.402C262.068 244.091 262.457 243.973 262.769 244.141C263.081 244.309 263.197 244.697 263.029 245.008C261.867 247.172 260.421 248.465 258.868 249.165C256.551 250.212 253.969 249.934 251.649 249.146C248.893 248.21 246.518 246.566 245.465 245.77C240.888 252.81 234.405 251.815 230.068 249.985L229.765 249.256C229.659 248.999 229.553 248.741 229.446 248.484L229.362 248.278Z" fill="#FD9500"/>
<path fill-rule="evenodd" clip-rule="evenodd" d="M258.126 230.838C258.126 230.838 247.25 230.793 241.264 230.769C241.02 230.768 240.811 230.95 240.779 231.193C240.748 231.437 240.902 231.666 241.139 231.727C247.411 233.372 259.426 236.524 259.426 236.524L258.126 230.838Z" fill="#FD9500"/>
<path fill-rule="evenodd" clip-rule="evenodd" d="M273.016 230.489C272.756 230.518 272.495 230.546 272.232 230.573V231.824C267.456 232.123 263.031 232.198 258.716 232.139L266.556 253.915C266.157 253.879 265.698 253.837 265.188 253.786L266.331 256.889C266.265 256.823 266.212 256.743 266.178 256.649L257.346 232.117C256.539 232.1 255.736 232.08 254.933 232.056C254.58 232.045 254.302 231.749 254.313 231.397C254.323 231.043 254.619 230.765 254.971 230.776C260.718 230.949 266.533 230.928 273.016 230.489ZM226.969 189.211C219.667 195.722 216.788 202.827 218.801 215.205C220.172 223.635 223.788 234.468 229.791 249.135C229.831 249.231 229.845 249.333 229.837 249.43C229.281 248.086 228.725 246.74 228.172 245.384C227.66 245.181 227.153 244.972 226.648 244.758C221.761 232.398 218.763 222.949 217.537 215.411C216.037 206.195 217.155 199.783 220.68 194.397C221.647 193.729 222.669 193.069 223.75 192.418C224.741 191.216 225.819 190.152 226.969 189.211Z" fill="#FD9500"/>
<path d="M255.384 128.872C260.575 128.872 264.782 124.633 264.782 119.404C264.782 114.175 260.575 109.936 255.384 109.936C250.193 109.936 245.986 114.175 245.986 119.404C245.986 124.633 250.193 128.872 255.384 128.872Z" fill="#FFBF2F"/>
<path fill-rule="evenodd" clip-rule="evenodd" d="M248.088 113.438C249.812 111.302 252.441 109.935 255.385 109.935C260.572 109.935 264.783 114.178 264.783 119.403C264.783 120.471 264.608 121.498 264.283 122.456C262.626 122.311 261.684 121.076 261.36 120.56C261.966 120.248 262.387 119.56 262.387 118.762C262.387 117.672 261.6 116.786 260.628 116.786C259.657 116.786 258.869 117.672 258.869 118.762C258.869 119.02 258.913 119.266 258.994 119.492C253.039 120.134 249.252 115.218 248.088 113.438ZM252.356 108.428C252.6 108.51 252.867 108.417 253.007 108.201C253.145 107.985 253.121 107.702 252.946 107.514C252.896 107.453 252.839 107.393 252.78 107.331C251.299 105.787 249.631 104.385 247.854 103.2C242.389 99.5521 235.877 96.8238 229.476 95.3762C222.863 93.8809 214.608 93.7967 208.765 97.6666C204.921 100.212 202.046 105.599 205.36 109.805C206.549 111.314 208.257 112.363 210.022 113.069C217.168 115.927 224.619 114.124 231.408 111.262C235.273 109.632 239.116 107.472 243.326 106.801C245.969 106.38 250.046 107.61 252.356 108.428Z" fill="black"/>
<path fill-rule="evenodd" clip-rule="evenodd" d="M288.601 230.894L306.484 182.613L310.3 184.004L281.903 261.924H277.108L287.097 234.955H258.646V230.894H288.601Z" fill="black"/>
<path d="M219.963 132.337H166.203L172.564 170.093H226.324L219.963 132.337Z" fill="black"/>
<path d="M206.185 168.212H194.182L195.928 178.576H207.931L206.185 168.212Z" fill="black"/>
<path d="M217.022 135.215H169.998L175.256 166.428H222.28L217.022 135.215Z" fill="#EAEAEB"/>
<path d="M215.53 137.974H199.552L201.888 151.838H217.866L215.53 137.974Z" fill="white"/>
<path fill-rule="evenodd" clip-rule="evenodd" d="M200.007 138.358L200.815 143.154C200.85 143.363 200.709 143.561 200.499 143.597C200.29 143.632 200.092 143.491 200.056 143.281L199.173 138.037C199.154 137.926 199.185 137.812 199.259 137.725C199.332 137.639 199.439 137.589 199.552 137.589H215.53C215.718 137.589 215.878 137.725 215.909 137.91L216.793 143.154C216.828 143.363 216.686 143.561 216.477 143.597C216.268 143.632 216.07 143.491 216.035 143.281L215.205 138.358H200.007Z" fill="black"/>
<path fill-rule="evenodd" clip-rule="evenodd" d="M217.411 151.454L216.035 143.282C215.999 143.073 216.14 142.874 216.35 142.839C216.559 142.804 216.757 142.945 216.792 143.154L218.245 151.775C218.263 151.886 218.232 152 218.159 152.087C218.086 152.173 217.979 152.223 217.866 152.223H201.888C201.7 152.223 201.54 152.087 201.509 151.902L200.056 143.282C200.021 143.073 200.162 142.874 200.372 142.839C200.581 142.804 200.779 142.945 200.814 143.154L202.213 151.454H217.411Z" fill="black"/>
<path fill-rule="evenodd" clip-rule="evenodd" d="M207.675 151.838H206.896L204.545 137.974H205.325L207.675 151.838ZM213.359 151.838H212.579L210.229 137.974H211.008L213.359 151.838Z" fill="black"/>
<path fill-rule="evenodd" clip-rule="evenodd" d="M217.328 148.647H201.35L201.221 147.878H217.199L217.328 148.647ZM216.753 145.229H200.775L200.646 144.461H216.624L216.753 145.229ZM216.134 141.554H200.156L200.025 140.786H216.005L216.134 141.554Z" fill="black"/>
<path fill-rule="evenodd" clip-rule="evenodd" d="M195.498 163.674H208.25L204.707 142.641H195.499" fill="white"/>
<path fill-rule="evenodd" clip-rule="evenodd" d="M204.382 143.026H195.498C195.286 143.026 195.114 142.853 195.114 142.641C195.114 142.429 195.286 142.257 195.498 142.257H204.707C204.895 142.257 205.055 142.392 205.086 142.577L208.629 163.61C208.648 163.722 208.617 163.836 208.544 163.922C208.471 164.009 208.363 164.058 208.25 164.058H195.498C195.286 164.058 195.114 163.886 195.114 163.674C195.114 163.462 195.286 163.29 195.498 163.29H207.796L204.382 143.026Z" fill="black"/>
<path fill-rule="evenodd" clip-rule="evenodd" d="M195.498 142.641H177.021L180.565 163.674H195.498" fill="white"/>
<path fill-rule="evenodd" clip-rule="evenodd" d="M180.889 163.29H195.498C195.71 163.29 195.883 163.462 195.883 163.674C195.882 163.886 195.711 164.058 195.498 164.058H180.564C180.377 164.058 180.217 163.923 180.186 163.738L176.642 142.705C176.623 142.594 176.655 142.48 176.728 142.393C176.801 142.307 176.908 142.257 177.021 142.257H195.498C195.71 142.257 195.883 142.429 195.883 142.641C195.883 142.853 195.711 143.026 195.498 143.026H177.476L180.889 163.29Z" fill="black"/>
<path d="M204.707 142.641H177.022L177.447 145.167H205.133L204.707 142.641Z" fill="black"/>
<path fill-rule="evenodd" clip-rule="evenodd" d="M207.254 157.757H179.567L179.438 156.988H207.124L207.254 157.757ZM206.112 150.983H178.427L178.297 150.214H205.983L206.112 150.983Z" fill="black"/>
<path fill-rule="evenodd" clip-rule="evenodd" d="M187.66 163.674H186.881L183.316 142.641H184.095L187.66 163.674ZM195.205 163.674H194.424L190.859 142.641H191.639L195.205 163.674ZM202.654 163.674H201.875L198.31 142.641H199.089L202.654 163.674Z" fill="black"/>
<path d="M205.217 154.822C205.233 155.032 205.193 155.227 205.096 155.406C204.993 155.581 204.843 155.725 204.635 155.84C204.427 155.949 204.175 156.018 203.879 156.041C203.523 156.069 203.228 156.029 202.987 155.915C202.819 155.835 202.674 155.718 202.561 155.57C202.444 155.422 202.382 155.275 202.37 155.129C202.364 155.041 202.388 154.965 202.448 154.902C202.504 154.834 202.577 154.798 202.672 154.791C202.747 154.785 202.814 154.804 202.873 154.844C202.932 154.888 202.982 154.958 203.025 155.048C203.079 155.157 203.136 155.245 203.197 155.314C203.253 155.384 203.333 155.441 203.432 155.482C203.536 155.523 203.663 155.538 203.819 155.526C204.034 155.509 204.206 155.446 204.334 155.338C204.462 155.23 204.517 155.103 204.506 154.957C204.497 154.84 204.454 154.75 204.373 154.682C204.297 154.615 204.198 154.568 204.08 154.538C203.961 154.508 203.803 154.482 203.609 154.453C203.348 154.414 203.128 154.363 202.946 154.298C202.764 154.234 202.621 154.137 202.505 154.009C202.394 153.88 202.331 153.718 202.315 153.513C202.3 153.323 202.341 153.148 202.435 152.988C202.534 152.833 202.68 152.704 202.874 152.61C203.073 152.511 203.311 152.453 203.587 152.432C203.807 152.415 204 152.424 204.164 152.465C204.329 152.506 204.47 152.569 204.582 152.648C204.694 152.728 204.777 152.815 204.835 152.908C204.892 153.002 204.925 153.093 204.932 153.186C204.939 153.269 204.915 153.349 204.859 153.417C204.8 153.49 204.727 153.531 204.637 153.538C204.552 153.544 204.49 153.529 204.442 153.494C204.393 153.454 204.343 153.394 204.286 153.305C204.21 153.178 204.122 153.082 204.026 153.016C203.93 152.95 203.782 152.922 203.576 152.938C203.391 152.953 203.243 153.004 203.134 153.096C203.025 153.183 202.973 153.285 202.981 153.397C202.987 153.465 203.012 153.527 203.056 153.573C203.1 153.623 203.153 153.659 203.226 153.692C203.299 153.721 203.372 153.745 203.444 153.763C203.516 153.777 203.633 153.798 203.797 153.824C204.001 153.857 204.19 153.892 204.36 153.932C204.525 153.978 204.671 154.036 204.792 154.105C204.914 154.174 205.012 154.269 205.087 154.386C205.161 154.503 205.203 154.647 205.217 154.822Z" fill="black"/>
<path fill-rule="evenodd" clip-rule="evenodd" d="M203.1 152.27L203.647 156.256C203.676 156.466 203.87 156.613 204.079 156.584C204.29 156.556 204.437 156.362 204.409 156.151L203.862 152.166C203.834 151.956 203.639 151.809 203.429 151.837C203.219 151.866 203.072 152.06 203.1 152.27Z" fill="black"/>
<path fill-rule="evenodd" clip-rule="evenodd" d="M180.588 146.397L181.028 148.951C181.064 149.161 181.263 149.301 181.472 149.265C181.681 149.229 181.822 149.03 181.785 148.821L181.345 146.267C181.31 146.057 181.111 145.917 180.902 145.953C180.693 145.989 180.552 146.188 180.588 146.397Z" fill="black"/>
<path fill-rule="evenodd" clip-rule="evenodd" d="M183.015 159.449L183.455 162.004C183.49 162.213 183.69 162.353 183.899 162.317C184.108 162.281 184.249 162.083 184.212 161.873L183.772 159.319C183.736 159.11 183.538 158.969 183.329 159.005C183.12 159.041 182.979 159.24 183.015 159.449Z" fill="black"/>
<path fill-rule="evenodd" clip-rule="evenodd" d="M189.434 152.973C189.551 152.956 189.65 153.053 189.744 153.172C189.902 153.368 190.017 153.654 190.065 153.979C190.112 154.305 190.082 154.612 189.987 154.844C189.93 154.985 189.863 155.106 189.746 155.123C189.536 155.154 189.391 155.349 189.421 155.559C189.452 155.769 189.646 155.914 189.856 155.884C190.152 155.841 190.415 155.653 190.597 155.344C190.805 154.988 190.91 154.45 190.826 153.869C190.741 153.288 190.488 152.802 190.187 152.52C189.925 152.275 189.62 152.17 189.323 152.213C189.113 152.243 188.968 152.438 188.999 152.648C189.029 152.858 189.224 153.004 189.434 152.973Z" fill="black"/>
<path fill-rule="evenodd" clip-rule="evenodd" d="M189.746 155.122C189.63 155.139 189.53 155.042 189.435 154.923C189.279 154.728 189.163 154.442 189.116 154.116C189.069 153.79 189.098 153.483 189.192 153.251C189.25 153.11 189.318 152.989 189.434 152.972C189.644 152.942 189.79 152.747 189.76 152.537C189.729 152.327 189.533 152.181 189.323 152.212C189.027 152.255 188.766 152.442 188.584 152.751C188.374 153.108 188.271 153.645 188.355 154.226C188.439 154.807 188.691 155.293 188.994 155.575C189.256 155.82 189.56 155.926 189.856 155.883C190.066 155.852 190.212 155.657 190.182 155.447C190.152 155.237 189.956 155.091 189.746 155.122Z" fill="black"/>
<path fill-rule="evenodd" clip-rule="evenodd" d="M190.481 159.716C190.599 159.699 190.697 159.796 190.792 159.915C190.949 160.11 191.065 160.396 191.112 160.722C191.16 161.048 191.13 161.355 191.035 161.587C190.978 161.728 190.911 161.849 190.793 161.866C190.583 161.896 190.438 162.091 190.469 162.301C190.499 162.511 190.694 162.657 190.904 162.626C191.2 162.583 191.462 162.396 191.645 162.086C191.853 161.73 191.958 161.192 191.873 160.611C191.789 160.03 191.536 159.545 191.235 159.262C190.972 159.017 190.667 158.912 190.371 158.955C190.161 158.986 190.016 159.181 190.046 159.391C190.077 159.601 190.271 159.746 190.481 159.716Z" fill="black"/>
<path fill-rule="evenodd" clip-rule="evenodd" d="M190.793 161.864C190.677 161.881 190.578 161.785 190.483 161.666C190.327 161.47 190.211 161.184 190.164 160.858C190.116 160.532 190.146 160.225 190.24 159.993C190.297 159.852 190.365 159.732 190.481 159.715C190.691 159.684 190.838 159.489 190.807 159.279C190.777 159.069 190.581 158.924 190.371 158.954C190.075 158.997 189.813 159.184 189.631 159.494C189.422 159.85 189.318 160.388 189.403 160.969C189.487 161.55 189.739 162.036 190.041 162.318C190.304 162.563 190.608 162.668 190.904 162.625C191.114 162.595 191.26 162.399 191.23 162.189C191.199 161.98 191.003 161.834 190.793 161.864Z" fill="black"/>
<path fill-rule="evenodd" clip-rule="evenodd" d="M197.969 159.713C198.086 159.696 198.184 159.793 198.279 159.912C198.437 160.107 198.552 160.393 198.6 160.719C198.647 161.045 198.617 161.352 198.522 161.584C198.465 161.725 198.398 161.846 198.281 161.863C198.071 161.893 197.926 162.088 197.956 162.298C197.986 162.508 198.181 162.654 198.391 162.624C198.687 162.581 198.95 162.393 199.132 162.084C199.34 161.727 199.445 161.19 199.36 160.609C199.276 160.028 199.023 159.542 198.722 159.26C198.459 159.015 198.154 158.91 197.858 158.953C197.648 158.983 197.503 159.178 197.534 159.388C197.564 159.598 197.759 159.744 197.969 159.713Z" fill="black"/>
<path fill-rule="evenodd" clip-rule="evenodd" d="M198.281 161.862C198.164 161.878 198.065 161.782 197.97 161.663C197.814 161.467 197.698 161.181 197.651 160.856C197.604 160.53 197.633 160.223 197.727 159.991C197.784 159.85 197.853 159.729 197.969 159.712C198.179 159.681 198.325 159.486 198.295 159.276C198.264 159.066 198.068 158.921 197.858 158.951C197.562 158.994 197.301 159.182 197.119 159.491C196.909 159.848 196.806 160.385 196.89 160.966C196.974 161.547 197.226 162.033 197.529 162.315C197.791 162.56 198.095 162.665 198.391 162.622C198.601 162.592 198.747 162.397 198.717 162.187C198.686 161.977 198.491 161.831 198.281 161.862Z" fill="black"/>
<path d="M189.582 109.196L174.649 103.02L166.074 121.809L181.007 127.985L189.582 109.196Z" fill="#DD6140"/>
<path d="M187.419 110.604L175.085 105.503L173.971 107.946L186.304 113.046L187.419 110.604Z" fill="white"/>
<path fill-rule="evenodd" clip-rule="evenodd" d="M174.638 110.115C175.158 110.34 175.408 110.927 175.191 111.428C174.974 111.929 174.375 112.148 173.855 111.923L173.703 112.276C174.42 112.587 175.244 112.272 175.543 111.58C175.843 110.889 175.508 110.073 174.791 109.762L174.638 110.115Z" fill="white"/>
<path fill-rule="evenodd" clip-rule="evenodd" d="M173.855 111.924C173.336 111.699 173.086 111.112 173.303 110.611C173.519 110.111 174.118 109.891 174.638 110.116L174.791 109.763C174.072 109.452 173.249 109.767 172.949 110.458C172.65 111.15 172.984 111.966 173.703 112.277L173.855 111.924Z" fill="white"/>
<path fill-rule="evenodd" clip-rule="evenodd" d="M173.328 113.143C173.847 113.368 174.097 113.955 173.88 114.456C173.663 114.957 173.064 115.176 172.545 114.951L172.392 115.304C173.11 115.615 173.933 115.3 174.233 114.608C174.532 113.917 174.198 113.101 173.48 112.79L173.328 113.143Z" fill="white"/>
<path fill-rule="evenodd" clip-rule="evenodd" d="M172.545 114.952C172.025 114.727 171.775 114.14 171.992 113.639C172.209 113.139 172.808 112.919 173.328 113.144L173.48 112.791C172.762 112.48 171.938 112.795 171.639 113.486C171.339 114.178 171.674 114.994 172.392 115.305L172.545 114.952Z" fill="white"/>
<path fill-rule="evenodd" clip-rule="evenodd" d="M172.017 116.171C172.537 116.396 172.787 116.983 172.57 117.484C172.353 117.985 171.754 118.205 171.234 117.98L171.082 118.332C171.799 118.643 172.623 118.329 172.922 117.637C173.222 116.945 172.887 116.129 172.17 115.819L172.017 116.171Z" fill="white"/>
<path fill-rule="evenodd" clip-rule="evenodd" d="M171.234 117.981C170.714 117.756 170.465 117.169 170.681 116.668C170.898 116.167 171.497 115.947 172.017 116.172L172.17 115.82C171.451 115.508 170.627 115.823 170.328 116.515C170.028 117.207 170.363 118.022 171.082 118.333L171.234 117.981Z" fill="white"/>
<path fill-rule="evenodd" clip-rule="evenodd" d="M170.706 119.199C171.226 119.424 171.476 120.011 171.259 120.512C171.042 121.013 170.443 121.233 169.923 121.008L169.771 121.36C170.488 121.671 171.312 121.357 171.611 120.665C171.911 119.973 171.576 119.157 170.859 118.847L170.706 119.199Z" fill="white"/>
<path fill-rule="evenodd" clip-rule="evenodd" d="M169.924 121.009C169.404 120.784 169.154 120.197 169.371 119.696C169.588 119.195 170.187 118.975 170.706 119.2L170.859 118.848C170.14 118.537 169.317 118.851 169.017 119.543C168.718 120.235 169.052 121.05 169.771 121.361L169.924 121.009Z" fill="white"/>
<path fill-rule="evenodd" clip-rule="evenodd" d="M177.701 111.439C178.22 111.664 178.47 112.251 178.253 112.752C178.037 113.253 177.438 113.473 176.918 113.248L176.765 113.6C177.483 113.911 178.306 113.597 178.606 112.905C178.905 112.213 178.571 111.397 177.853 111.087L177.701 111.439Z" fill="white"/>
<path fill-rule="evenodd" clip-rule="evenodd" d="M176.918 113.249C176.398 113.024 176.148 112.437 176.365 111.936C176.582 111.435 177.181 111.215 177.701 111.44L177.853 111.088C177.135 110.777 176.311 111.091 176.012 111.783C175.712 112.475 176.047 113.29 176.765 113.601L176.918 113.249Z" fill="white"/>
<path fill-rule="evenodd" clip-rule="evenodd" d="M176.39 114.468C176.91 114.693 177.16 115.28 176.943 115.78C176.726 116.281 176.127 116.501 175.607 116.276L175.454 116.629C176.172 116.939 176.996 116.625 177.295 115.933C177.595 115.241 177.26 114.425 176.543 114.115L176.39 114.468Z" fill="white"/>
<path fill-rule="evenodd" clip-rule="evenodd" d="M175.607 116.277C175.087 116.052 174.838 115.465 175.054 114.964C175.271 114.463 175.87 114.243 176.39 114.468L176.543 114.116C175.824 113.805 175 114.119 174.701 114.811C174.401 115.503 174.736 116.318 175.454 116.63L175.607 116.277Z" fill="white"/>
<path fill-rule="evenodd" clip-rule="evenodd" d="M175.079 117.496C175.599 117.721 175.849 118.308 175.632 118.809C175.415 119.309 174.816 119.529 174.297 119.304L174.144 119.657C174.861 119.967 175.685 119.653 175.985 118.961C176.284 118.269 175.95 117.454 175.232 117.143L175.079 117.496Z" fill="white"/>
<path fill-rule="evenodd" clip-rule="evenodd" d="M174.297 119.305C173.777 119.08 173.527 118.493 173.744 117.992C173.961 117.491 174.56 117.272 175.079 117.497L175.232 117.144C174.513 116.833 173.69 117.147 173.39 117.839C173.091 118.531 173.425 119.347 174.144 119.658L174.297 119.305Z" fill="white"/>
<path fill-rule="evenodd" clip-rule="evenodd" d="M173.769 120.524C174.288 120.749 174.538 121.336 174.321 121.837C174.105 122.338 173.506 122.557 172.986 122.332L172.833 122.685C173.551 122.995 174.374 122.681 174.674 121.989C174.973 121.297 174.639 120.482 173.921 120.171L173.769 120.524Z" fill="white"/>
<path fill-rule="evenodd" clip-rule="evenodd" d="M172.986 122.333C172.466 122.108 172.216 121.521 172.433 121.02C172.65 120.519 173.249 120.3 173.769 120.525L173.921 120.172C173.203 119.861 172.379 120.175 172.08 120.867C171.78 121.559 172.115 122.375 172.833 122.686L172.986 122.333Z" fill="white"/>
<path fill-rule="evenodd" clip-rule="evenodd" d="M180.763 112.767C181.283 112.992 181.533 113.579 181.316 114.079C181.099 114.58 180.5 114.8 179.98 114.575L179.828 114.928C180.545 115.238 181.369 114.924 181.668 114.232C181.968 113.54 181.633 112.724 180.916 112.414L180.763 112.767Z" fill="white"/>
<path fill-rule="evenodd" clip-rule="evenodd" d="M179.98 114.576C179.46 114.351 179.211 113.764 179.427 113.263C179.644 112.762 180.243 112.543 180.763 112.768L180.916 112.415C180.197 112.104 179.373 112.418 179.074 113.11C178.774 113.802 179.109 114.618 179.828 114.929L179.98 114.576Z" fill="white"/>
<path fill-rule="evenodd" clip-rule="evenodd" d="M179.452 115.795C179.972 116.02 180.222 116.607 180.005 117.108C179.788 117.608 179.189 117.828 178.67 117.603L178.517 117.956C179.234 118.266 180.058 117.952 180.358 117.26C180.657 116.568 180.323 115.753 179.605 115.442L179.452 115.795Z" fill="white"/>
<path fill-rule="evenodd" clip-rule="evenodd" d="M178.67 117.604C178.15 117.379 177.9 116.792 178.117 116.291C178.334 115.79 178.933 115.571 179.452 115.796L179.605 115.443C178.887 115.132 178.063 115.446 177.763 116.138C177.464 116.83 177.798 117.646 178.517 117.957L178.67 117.604Z" fill="white"/>
<path fill-rule="evenodd" clip-rule="evenodd" d="M178.142 118.823C178.661 119.048 178.911 119.635 178.694 120.136C178.478 120.637 177.879 120.856 177.359 120.631L177.206 120.984C177.924 121.294 178.747 120.98 179.047 120.288C179.346 119.596 179.012 118.781 178.294 118.47L178.142 118.823Z" fill="white"/>
<path fill-rule="evenodd" clip-rule="evenodd" d="M177.359 120.632C176.839 120.407 176.589 119.82 176.806 119.319C177.023 118.818 177.622 118.599 178.142 118.824L178.294 118.471C177.576 118.16 176.752 118.474 176.453 119.166C176.153 119.858 176.488 120.674 177.206 120.985L177.359 120.632Z" fill="white"/>
<path fill-rule="evenodd" clip-rule="evenodd" d="M176.831 121.848C177.351 122.073 177.601 122.66 177.384 123.161C177.167 123.662 176.568 123.882 176.048 123.657L175.896 124.009C176.613 124.32 177.437 124.006 177.736 123.314C178.036 122.622 177.701 121.806 176.984 121.496L176.831 121.848Z" fill="white"/>
<path fill-rule="evenodd" clip-rule="evenodd" d="M176.048 123.658C175.529 123.433 175.279 122.846 175.496 122.345C175.712 121.844 176.311 121.624 176.831 121.849L176.984 121.497C176.265 121.185 175.442 121.5 175.142 122.192C174.843 122.884 175.177 123.699 175.896 124.01L176.048 123.658Z" fill="white"/>
<path fill-rule="evenodd" clip-rule="evenodd" d="M183.825 114.091C184.345 114.316 184.595 114.903 184.378 115.404C184.161 115.905 183.562 116.124 183.043 115.899L182.89 116.252C183.607 116.563 184.431 116.248 184.73 115.556C185.03 114.865 184.695 114.049 183.978 113.738L183.825 114.091Z" fill="white"/>
<path fill-rule="evenodd" clip-rule="evenodd" d="M183.043 115.9C182.523 115.675 182.273 115.088 182.49 114.587C182.707 114.087 183.306 113.867 183.825 114.092L183.978 113.739C183.259 113.428 182.436 113.743 182.136 114.434C181.837 115.126 182.171 115.942 182.89 116.253L183.043 115.9Z" fill="white"/>
<path fill-rule="evenodd" clip-rule="evenodd" d="M182.515 117.119C183.035 117.344 183.284 117.931 183.068 118.432C182.851 118.933 182.252 119.153 181.732 118.928L181.579 119.28C182.297 119.591 183.12 119.276 183.42 118.585C183.719 117.893 183.385 117.077 182.667 116.766L182.515 117.119Z" fill="white"/>
<path fill-rule="evenodd" clip-rule="evenodd" d="M181.732 118.928C181.212 118.703 180.962 118.116 181.179 117.616C181.396 117.115 181.995 116.895 182.515 117.12L182.667 116.767C181.949 116.456 181.125 116.771 180.826 117.463C180.526 118.154 180.861 118.97 181.579 119.281L181.732 118.928Z" fill="white"/>
<path fill-rule="evenodd" clip-rule="evenodd" d="M181.204 120.147C181.724 120.372 181.974 120.959 181.757 121.46C181.54 121.961 180.941 122.181 180.421 121.956L180.269 122.308C180.986 122.619 181.81 122.304 182.109 121.613C182.409 120.921 182.074 120.105 181.357 119.795L181.204 120.147Z" fill="white"/>
<path fill-rule="evenodd" clip-rule="evenodd" d="M180.421 121.957C179.902 121.732 179.652 121.144 179.869 120.644C180.085 120.143 180.684 119.923 181.204 120.148L181.357 119.795C180.638 119.484 179.815 119.799 179.515 120.491C179.216 121.182 179.55 121.998 180.269 122.309L180.421 121.957Z" fill="white"/>
<path fill-rule="evenodd" clip-rule="evenodd" d="M179.893 123.175C180.413 123.4 180.663 123.987 180.446 124.488C180.229 124.989 179.63 125.209 179.111 124.984L178.958 125.336C179.675 125.647 180.499 125.333 180.799 124.641C181.098 123.949 180.764 123.133 180.046 122.823L179.893 123.175Z" fill="white"/>
<path fill-rule="evenodd" clip-rule="evenodd" d="M179.111 124.985C178.591 124.76 178.341 124.173 178.558 123.672C178.775 123.171 179.374 122.951 179.894 123.176L180.046 122.824C179.328 122.513 178.504 122.827 178.204 123.519C177.905 124.211 178.239 125.026 178.958 125.337L179.111 124.985Z" fill="white"/>
<path d="M269.845 178.17H98.1207V183.031H269.845V178.17Z" fill="black"/>
<path fill-rule="evenodd" clip-rule="evenodd" d="M221.107 175.591H223.296V174.674H226.714V175.591H229.044V174.674H232.462V175.591H234.794V174.674H238.212V175.591H238.94C239.274 175.591 239.594 175.725 239.831 175.962C240.067 176.197 240.2 176.518 240.2 176.852V178.131H215.439C215.439 178.131 215.439 177.49 215.439 176.852C215.439 176.518 215.572 176.197 215.808 175.962C216.045 175.725 216.365 175.591 216.7 175.591H217.689V174.674H221.107V175.591Z" fill="#D2D3D5"/>
<path d="M136.383 175.08H106.322V178.51H136.383V175.08Z" fill="white"/>
<path fill-rule="evenodd" clip-rule="evenodd" d="M122.584 174.517V175.542H107.005V177.746H122.584V178.771H106.492C106.209 178.771 105.98 178.542 105.98 178.259V175.029C105.98 174.746 106.209 174.517 106.492 174.517H122.584Z" fill="black"/>
<path fill-rule="evenodd" clip-rule="evenodd" d="M122.584 174.517H136.819C137.102 174.517 137.332 174.746 137.332 175.029V178.259C137.332 178.542 137.102 178.771 136.819 178.771H122.584C122.107 178.269 122.29 177.989 122.584 177.746H136.307V175.542H122.584C122.39 175.164 122.342 174.813 122.584 174.517Z" fill="black"/>
<path fill-rule="evenodd" clip-rule="evenodd" d="M124.445 175.185L124.529 178.403C124.537 178.686 124.772 178.909 125.055 178.903C125.338 178.895 125.561 178.659 125.554 178.376L125.47 175.158C125.463 174.876 125.227 174.652 124.944 174.66C124.662 174.667 124.438 174.903 124.445 175.185ZM130.88 173.686V178.206C130.88 178.489 131.109 178.718 131.392 178.718C131.675 178.718 131.905 178.489 131.905 178.206V173.686C131.905 173.403 131.675 173.174 131.392 173.174C131.109 173.174 130.88 173.403 130.88 173.686ZM127.722 173.76V177.915C127.722 178.198 127.952 178.427 128.234 178.427C128.517 178.427 128.747 178.198 128.747 177.915V173.76C128.747 173.477 128.517 173.248 128.234 173.248C127.952 173.248 127.722 173.477 127.722 173.76ZM133.892 173.731V177.806C133.892 178.088 134.121 178.319 134.404 178.319C134.687 178.319 134.917 178.088 134.917 177.806V173.731C134.917 173.449 134.687 173.218 134.404 173.218C134.121 173.218 133.892 173.449 133.892 173.731Z" fill="black"/>
<path fill-rule="evenodd" clip-rule="evenodd" d="M143.815 150.735H142.908C142.403 150.735 141.993 150.325 141.993 149.821C141.993 149.316 142.403 148.906 142.908 148.906H165.658C166.164 148.906 166.573 149.316 166.573 149.821C166.573 150.325 166.164 150.735 165.658 150.735H165.235C165.695 150.897 166.119 151.161 166.47 151.513C167.088 152.129 167.434 152.966 167.434 153.838V178.135H141.615C141.615 178.135 141.615 161.153 141.615 153.838C141.615 152.966 141.962 152.129 142.579 151.513C142.931 151.161 143.354 150.897 143.815 150.735Z" fill="#FFF4E5"/>
<path fill-rule="evenodd" clip-rule="evenodd" d="M165.235 150.735C165.563 150.85 165.872 151.017 166.15 151.231L142.202 151.964C142.314 151.803 142.439 151.652 142.579 151.512C142.931 151.161 143.354 150.897 143.815 150.735H165.235Z" fill="#F4978B"/>
<path d="M150.715 154.971L142.392 157.494L146.765 171.921L155.088 169.399L150.715 154.971Z" fill="#F4978B"/>
<path fill-rule="evenodd" clip-rule="evenodd" d="M148.877 161.913C149.853 161.913 150.646 162.706 150.646 163.682C150.646 164.659 149.853 165.452 148.877 165.452C148.664 165.452 148.492 165.624 148.492 165.836C148.492 166.048 148.664 166.221 148.877 166.221C150.277 166.221 151.415 165.083 151.415 163.682C151.415 162.281 150.277 161.144 148.877 161.144C148.664 161.144 148.492 161.316 148.492 161.528C148.492 161.74 148.664 161.913 148.877 161.913Z" fill="#DE6647"/>
<path fill-rule="evenodd" clip-rule="evenodd" d="M148.877 165.452C147.899 165.452 147.107 164.659 147.107 163.682C147.107 162.706 147.899 161.913 148.877 161.913C149.088 161.913 149.261 161.74 149.261 161.528C149.261 161.316 149.088 161.144 148.877 161.144C147.475 161.144 146.339 162.281 146.339 163.682C146.339 165.083 147.475 166.221 148.877 166.221C149.088 166.221 149.261 166.048 149.261 165.836C149.261 165.624 149.088 165.452 148.877 165.452Z" fill="#DE6647"/>
<path fill-rule="evenodd" clip-rule="evenodd" d="M149.695 171.033L149.032 169.002C148.945 168.733 149.092 168.444 149.36 168.356C149.629 168.268 149.918 168.415 150.007 168.684L150.677 170.736L149.695 171.033ZM151.075 170.615L150.628 169.169C150.545 168.899 150.696 168.612 150.966 168.528C151.237 168.445 151.524 168.596 151.607 168.866L152.056 170.317L151.075 170.615ZM147.819 155.849L148.542 158.189C148.626 158.459 148.474 158.746 148.204 158.83C147.934 158.913 147.647 158.762 147.564 158.491L146.837 156.146L147.819 155.849ZM146.213 156.335L146.822 158.109C146.914 158.377 146.771 158.668 146.503 158.76C146.235 158.852 145.944 158.709 145.852 158.441L145.232 156.633L146.213 156.335Z" fill="#DE6647"/>
<path d="M167.035 163.396L158.633 161.149L154.738 175.713L163.139 177.96L167.035 163.396Z" fill="#F4978B"/>
<path fill-rule="evenodd" clip-rule="evenodd" d="M161.81 168.323C162.64 168.838 162.895 169.93 162.38 170.76C161.865 171.589 160.773 171.845 159.944 171.33C159.763 171.218 159.526 171.273 159.414 171.454C159.302 171.634 159.357 171.871 159.538 171.983C160.728 172.721 162.294 172.355 163.033 171.165C163.772 169.975 163.406 168.409 162.216 167.67C162.035 167.558 161.799 167.614 161.687 167.794C161.575 167.974 161.63 168.211 161.81 168.323Z" fill="#DE6647"/>
<path fill-rule="evenodd" clip-rule="evenodd" d="M159.944 171.331C159.113 170.815 158.859 169.724 159.374 168.894C159.889 168.064 160.98 167.808 161.81 168.324C161.99 168.436 162.228 168.38 162.34 168.2C162.452 168.02 162.396 167.782 162.216 167.671C161.025 166.932 159.46 167.299 158.721 168.489C157.982 169.679 158.347 171.245 159.538 171.984C159.718 172.095 159.955 172.04 160.067 171.86C160.179 171.68 160.123 171.442 159.944 171.331Z" fill="#DE6647"/>
<path fill-rule="evenodd" clip-rule="evenodd" d="M157.695 176.502L158.203 174.427C158.271 174.152 158.549 173.984 158.823 174.051C159.097 174.118 159.266 174.396 159.199 174.671L158.686 176.767L157.695 176.502ZM159.088 176.875L159.471 175.411C159.543 175.138 159.823 174.973 160.096 175.045C160.37 175.116 160.534 175.396 160.462 175.67L160.079 177.14L159.088 176.875ZM164.11 162.612L163.491 164.982C163.419 165.256 163.139 165.42 162.866 165.348C162.592 165.277 162.428 164.997 162.5 164.723L163.12 162.347L164.11 162.612ZM162.49 162.179L162.071 164.007C162.009 164.283 161.733 164.455 161.457 164.392C161.181 164.328 161.009 164.054 161.072 163.778L161.5 161.914L162.49 162.179Z" fill="#DE6647"/>
<path d="M158.915 159.638C160.629 159.638 162.018 158.249 162.018 156.535C162.018 154.821 160.629 153.432 158.915 153.432C157.201 153.432 155.812 154.821 155.812 156.535C155.812 158.249 157.201 159.638 158.915 159.638Z" fill="#FFCF84"/>
<path fill-rule="evenodd" clip-rule="evenodd" d="M158.955 154.557C160.077 154.557 160.988 155.468 160.988 156.59C160.988 157.713 160.077 158.624 158.955 158.624C158.847 158.624 158.759 158.711 158.759 158.819C158.759 158.927 158.847 159.015 158.955 159.015C160.292 159.015 161.378 157.928 161.378 156.59C161.378 155.253 160.292 154.167 158.955 154.167C158.847 154.167 158.759 154.254 158.759 154.362C158.759 154.47 158.847 154.557 158.955 154.557Z" fill="#FDA92F"/>
<path fill-rule="evenodd" clip-rule="evenodd" d="M158.955 158.624C157.833 158.624 156.922 157.713 156.922 156.59C156.922 155.468 157.833 154.557 158.955 154.557C159.062 154.557 159.149 154.47 159.149 154.362C159.149 154.254 159.062 154.167 158.955 154.167C157.617 154.167 156.531 155.253 156.531 156.59C156.531 157.928 157.617 159.015 158.955 159.015C159.062 159.015 159.149 158.927 159.149 158.819C159.149 158.711 159.062 158.624 158.955 158.624Z" fill="#FDA92F"/>
<path fill-rule="evenodd" clip-rule="evenodd" d="M158.453 159.603L158.481 158.861C158.485 158.754 158.576 158.67 158.684 158.674C158.792 158.678 158.876 158.769 158.872 158.876L158.842 159.637C158.71 159.634 158.58 159.622 158.453 159.603ZM159.589 159.564L159.398 158.806C159.373 158.701 159.436 158.595 159.541 158.569C159.644 158.543 159.751 158.606 159.778 158.711L159.965 159.455C159.843 159.499 159.717 159.535 159.589 159.564ZM156.334 158.257L156.918 157.796C157.003 157.729 157.126 157.743 157.192 157.828C157.259 157.913 157.245 158.035 157.16 158.102L156.571 158.568C156.486 158.469 156.407 158.366 156.334 158.257ZM155.939 157.418L156.67 157.023C156.764 156.971 156.884 157.007 156.935 157.101C156.986 157.196 156.95 157.315 156.855 157.366L156.076 157.789C156.023 157.669 155.978 157.545 155.939 157.418ZM161.984 156.993L161.279 156.96C161.171 156.955 161.088 156.864 161.093 156.756C161.098 156.648 161.189 156.565 161.297 156.57L162.017 156.603C162.014 156.735 162.003 156.865 161.984 156.993ZM161.086 154.318C161.179 154.409 161.266 154.507 161.348 154.609L160.776 155.197C160.7 155.274 160.577 155.276 160.5 155.201C160.422 155.126 160.421 155.002 160.496 154.925L161.086 154.318ZM157.369 153.844L157.876 154.602C157.937 154.691 157.912 154.812 157.823 154.872C157.733 154.932 157.611 154.908 157.552 154.819L157.044 154.06C157.146 153.981 157.255 153.909 157.369 153.844ZM159.184 153.443C159.315 153.454 159.445 153.474 159.571 153.501L159.495 154.276C159.483 154.384 159.387 154.462 159.281 154.451C159.173 154.441 159.095 154.345 159.105 154.238L159.184 153.443Z" fill="#FDA92F"/>
<path d="M150.529 163.048C150.335 164.75 151.557 166.288 153.26 166.483C154.963 166.677 156.501 165.454 156.695 163.752C156.89 162.049 155.667 160.511 153.964 160.316C152.262 160.122 150.724 161.345 150.529 163.048Z" fill="#FFCF84"/>
<path fill-rule="evenodd" clip-rule="evenodd" d="M155.572 163.664C155.445 164.778 154.436 165.579 153.321 165.452C152.206 165.325 151.404 164.316 151.531 163.202C151.544 163.095 151.467 162.997 151.36 162.985C151.253 162.972 151.155 163.051 151.143 163.158C150.992 164.486 151.948 165.688 153.277 165.84C154.606 165.992 155.808 165.036 155.96 163.708C155.972 163.601 155.895 163.503 155.788 163.49C155.681 163.478 155.584 163.556 155.572 163.664Z" fill="#FDA92F"/>
<path fill-rule="evenodd" clip-rule="evenodd" d="M151.531 163.202C151.659 162.086 152.667 161.284 153.782 161.412C154.897 161.539 155.699 162.548 155.572 163.663C155.56 163.769 155.637 163.866 155.744 163.878C155.851 163.89 155.948 163.813 155.96 163.707C156.112 162.377 155.156 161.175 153.827 161.024C152.497 160.872 151.295 161.827 151.143 163.157C151.131 163.263 151.208 163.36 151.315 163.372C151.422 163.384 151.519 163.307 151.531 163.202Z" fill="#FDA92F"/>
<path fill-rule="evenodd" clip-rule="evenodd" d="M150.616 162.592L151.35 162.705C151.456 162.721 151.529 162.821 151.513 162.927C151.497 163.035 151.397 163.107 151.29 163.091L150.538 162.976C150.556 162.845 150.582 162.716 150.616 162.592ZM150.526 163.726L151.301 163.622C151.407 163.609 151.506 163.683 151.52 163.79C151.534 163.896 151.459 163.995 151.352 164.01L150.591 164.111C150.561 163.985 150.54 163.856 150.526 163.726ZM152.193 160.64L152.586 161.273C152.642 161.364 152.614 161.485 152.522 161.541C152.431 161.598 152.31 161.57 152.254 161.478L151.858 160.84C151.965 160.767 152.077 160.7 152.193 160.64ZM153.072 160.343L153.382 161.113C153.422 161.213 153.374 161.328 153.274 161.368C153.174 161.408 153.06 161.359 153.02 161.259L152.688 160.437C152.813 160.397 152.941 160.367 153.072 160.343ZM152.809 166.397L152.921 165.7C152.938 165.594 153.039 165.521 153.145 165.539C153.251 165.556 153.324 165.656 153.307 165.762L153.192 166.474C153.061 166.456 152.933 166.43 152.809 166.397ZM155.568 165.808C155.467 165.89 155.36 165.966 155.249 166.036L154.73 165.4C154.662 165.316 154.674 165.194 154.757 165.126C154.841 165.057 154.964 165.07 155.032 165.153L155.568 165.808ZM156.461 162.169L155.651 162.587C155.555 162.637 155.437 162.599 155.387 162.503C155.338 162.407 155.376 162.289 155.471 162.24L156.283 161.821C156.35 161.932 156.409 162.048 156.461 162.169ZM156.653 164.018C156.627 164.147 156.593 164.273 156.552 164.396L155.79 164.232C155.685 164.208 155.618 164.104 155.641 163.999C155.663 163.893 155.767 163.827 155.873 163.849L156.653 164.018Z" fill="#FDA92F"/>
<path d="M144.721 176.955C145.977 178.121 147.941 178.048 149.107 176.792C150.273 175.536 150.2 173.573 148.944 172.406C147.688 171.24 145.725 171.313 144.559 172.569C143.393 173.825 143.466 175.789 144.721 176.955Z" fill="#FFCF84"/>
<path fill-rule="evenodd" clip-rule="evenodd" d="M148.208 173.26C149.029 174.023 149.077 175.31 148.314 176.133C147.55 176.955 146.262 177.003 145.441 176.24C145.362 176.167 145.237 176.171 145.164 176.25C145.09 176.328 145.096 176.453 145.175 176.526C146.155 177.436 147.689 177.379 148.6 176.399C149.51 175.418 149.453 173.883 148.474 172.974C148.394 172.9 148.27 172.904 148.197 172.983C148.123 173.062 148.129 173.186 148.208 173.26Z" fill="#FDA92F"/>
<path fill-rule="evenodd" clip-rule="evenodd" d="M145.441 176.239C144.618 175.475 144.57 174.188 145.334 173.365C146.098 172.543 147.385 172.495 148.208 173.259C148.286 173.331 148.409 173.327 148.483 173.248C148.556 173.169 148.552 173.045 148.474 172.973C147.493 172.062 145.958 172.119 145.048 173.099C144.137 174.08 144.194 175.615 145.175 176.525C145.253 176.598 145.377 176.593 145.45 176.514C145.523 176.435 145.519 176.312 145.441 176.239Z" fill="#FDA92F"/>
<path fill-rule="evenodd" clip-rule="evenodd" d="M144.406 176.616L144.932 176.091C145.008 176.015 145.132 176.015 145.208 176.092C145.285 176.169 145.284 176.292 145.208 176.368L144.669 176.905C144.574 176.813 144.486 176.716 144.406 176.616ZM145.266 177.36L145.642 176.675C145.694 176.581 145.812 176.546 145.907 176.598C146.001 176.649 146.036 176.768 145.984 176.863L145.615 177.536C145.496 177.485 145.379 177.427 145.266 177.36ZM143.769 174.188L144.511 174.247C144.619 174.256 144.699 174.35 144.69 174.457C144.682 174.564 144.588 174.645 144.48 174.636L143.732 174.576C143.737 174.447 143.749 174.317 143.769 174.188ZM144.051 173.305L144.855 173.511C144.96 173.538 145.023 173.645 144.996 173.749C144.969 173.854 144.862 173.916 144.758 173.889L143.899 173.669C143.941 173.545 143.993 173.424 144.051 173.305ZM148.77 177.105L148.276 176.602C148.2 176.525 148.202 176.401 148.279 176.326C148.356 176.25 148.479 176.251 148.554 176.328L149.059 176.842C148.968 176.937 148.871 177.025 148.77 177.105ZM149.932 174.534C149.938 174.665 149.936 174.795 149.926 174.926L149.106 174.967C148.998 174.972 148.907 174.89 148.902 174.783C148.896 174.674 148.979 174.583 149.087 174.578L149.932 174.534ZM147.531 171.658L147.387 172.558C147.37 172.665 147.27 172.737 147.163 172.72C147.057 172.703 146.984 172.603 147.002 172.497L147.145 171.595C147.274 171.607 147.403 171.628 147.531 171.658ZM149.134 172.599C149.222 172.696 149.304 172.799 149.378 172.905L148.794 173.421C148.713 173.492 148.589 173.484 148.518 173.403C148.447 173.322 148.454 173.199 148.535 173.127L149.134 172.599Z" fill="#FDA92F"/>
<path d="M164.145 177.952C165.829 177.632 166.934 176.007 166.614 174.323C166.294 172.64 164.67 171.534 162.986 171.854C161.302 172.174 160.197 173.799 160.517 175.483C160.837 177.166 162.462 178.272 164.145 177.952Z" fill="#FFCF84"/>
<path fill-rule="evenodd" clip-rule="evenodd" d="M163.236 172.955C164.338 172.745 165.403 173.47 165.612 174.573C165.822 175.675 165.097 176.74 163.996 176.95C163.89 176.97 163.819 177.073 163.839 177.178C163.859 177.284 163.963 177.354 164.069 177.334C165.382 177.084 166.246 175.814 165.996 174.5C165.746 173.185 164.477 172.321 163.163 172.571C163.057 172.591 162.986 172.694 163.007 172.799C163.027 172.905 163.13 172.975 163.236 172.955Z" fill="#FDA92F"/>
<path fill-rule="evenodd" clip-rule="evenodd" d="M163.996 176.948C162.893 177.157 161.828 176.432 161.618 175.33C161.408 174.227 162.133 173.162 163.236 172.952C163.341 172.933 163.41 172.83 163.39 172.724C163.37 172.619 163.268 172.549 163.163 172.569C161.848 172.819 160.984 174.089 161.234 175.403C161.484 176.717 162.754 177.581 164.069 177.332C164.173 177.312 164.243 177.209 164.223 177.103C164.203 176.998 164.1 176.928 163.996 176.948Z" fill="#FDA92F"/>
<path fill-rule="evenodd" clip-rule="evenodd" d="M163.685 178.003L163.574 177.269C163.558 177.163 163.631 177.063 163.738 177.047C163.846 177.031 163.944 177.104 163.961 177.211L164.074 177.963C163.944 177.985 163.813 177.998 163.685 178.003ZM164.794 177.752L164.465 177.043C164.42 176.945 164.462 176.829 164.56 176.784C164.657 176.739 164.774 176.781 164.82 176.879L165.142 177.575C165.031 177.641 164.915 177.7 164.794 177.752ZM161.352 177.077L161.84 176.514C161.91 176.433 162.034 176.424 162.115 176.495C162.196 176.565 162.205 176.689 162.135 176.77L161.643 177.337C161.541 177.256 161.444 177.17 161.352 177.077ZM160.808 176.326L161.451 175.801C161.535 175.733 161.658 175.745 161.726 175.829C161.794 175.912 161.781 176.036 161.698 176.104L161.011 176.664C160.936 176.557 160.869 176.444 160.808 176.326ZM166.666 174.779L165.968 174.879C165.861 174.894 165.762 174.82 165.747 174.713C165.732 174.606 165.806 174.507 165.912 174.492L166.626 174.39C166.648 174.521 166.661 174.65 166.666 174.779ZM165.284 172.319C165.393 172.392 165.497 172.471 165.597 172.556L165.144 173.241C165.084 173.331 164.964 173.356 164.874 173.296C164.783 173.237 164.759 173.115 164.819 173.025L165.284 172.319ZM161.545 172.548L162.185 173.197C162.26 173.274 162.259 173.398 162.182 173.473C162.105 173.549 161.981 173.548 161.907 173.471L161.265 172.82C161.351 172.724 161.445 172.633 161.545 172.548ZM163.253 171.815C163.384 171.801 163.514 171.796 163.644 171.799L163.713 172.575C163.722 172.683 163.642 172.778 163.536 172.787C163.428 172.797 163.333 172.718 163.324 172.61L163.253 171.815Z" fill="#FDA92F"/>
<path fill-rule="evenodd" clip-rule="evenodd" d="M155.901 177.737L140.868 203.914H134.686C134.686 203.914 132.786 207.973 135.664 209.459H164.022C164.051 209.459 164.08 209.461 164.109 209.465C164.674 209.506 167.901 209.414 170.454 202.798C174.603 192.052 178.807 185.853 183.054 177.737H155.901Z" fill="#E9E9EB"/>
<path d="M149.768 201.832C152.23 202.182 154.866 200.515 155.655 198.109C156.444 195.702 155.089 193.467 152.627 193.117C150.165 192.766 147.529 194.433 146.74 196.84C145.95 199.247 147.306 201.481 149.768 201.832Z" fill="white"/>
<path d="M179.707 179.128L156.365 178.88L155.366 180.703L178.708 180.95L179.707 179.128Z" fill="#BABDC2"/>
<path d="M178.14 182.49L154.688 182.279L153.692 184.104L177.143 184.314L178.14 182.49Z" fill="#BABDC2"/>
<path d="M176.329 186.144L152.802 185.532L151.776 187.338L175.303 187.95L176.329 186.144Z" fill="#BABDC2"/>
<path d="M174.456 189.761L151.052 188.747L149.997 190.535L173.401 191.549L174.456 189.761Z" fill="#BABDC2"/>
<path d="M171.933 193.515L159.44 192.886L158.564 194.63L171.057 195.26L171.933 193.515Z" fill="#BABDC2"/>
<path d="M169.867 197.211L161.431 196.704L160.7 198.457L169.137 198.964L169.867 197.211Z" fill="#BABDC2"/>
<path d="M168.177 200.927L156.984 200.093L156.373 201.854L167.566 202.688L168.177 200.927Z" fill="#BABDC2"/>
<path fill-rule="evenodd" clip-rule="evenodd" d="M141.431 202.934H161.686C161.71 202.934 161.733 202.936 161.756 202.939C161.973 202.968 162.157 203.088 162.241 203.364C162.282 203.498 162.286 203.763 162.233 204.121C162.048 205.406 161.219 208.649 164.537 209.452C164.341 209.474 164.194 209.47 164.109 209.465C164.08 209.461 164.051 209.459 164.022 209.459H162.289C162.176 209.359 162.072 209.254 161.976 209.145C160.808 207.817 160.933 205.896 161.123 204.608C161.155 204.387 161.187 204.147 161.211 203.959L140.868 203.914L141.431 202.934Z" fill="black"/>
<path d="M149.129 198.331C149.479 198.784 149.974 199.069 150.619 199.202C151.393 199.344 151.861 199.165 152.049 198.668C152.188 198.261 152.015 197.965 151.529 197.78C151.299 197.703 151.052 197.622 150.783 197.529C150.303 197.354 149.974 197.101 149.8 196.78C149.621 196.45 149.604 196.086 149.74 195.686C149.903 195.21 150.2 194.857 150.649 194.633C151.08 194.405 151.603 194.351 152.212 194.461C152.945 194.62 153.518 194.936 153.934 195.403L153.202 195.99C152.855 195.636 152.415 195.394 151.886 195.283C151.613 195.23 151.359 195.247 151.132 195.342C150.897 195.435 150.729 195.616 150.631 195.876C150.576 196.037 150.595 196.189 150.683 196.345C150.771 196.502 150.958 196.628 151.23 196.738C151.38 196.792 151.594 196.866 151.865 196.952C152.397 197.129 152.741 197.393 152.904 197.744C153.062 198.086 153.079 198.45 152.945 198.843C152.563 199.883 151.685 200.278 150.327 200.031C149.456 199.862 148.787 199.461 148.327 198.839L149.129 198.331Z" fill="black"/>
<path fill-rule="evenodd" clip-rule="evenodd" d="M152.383 193.754L149.411 200.485L150.099 200.694L153.097 193.904L152.383 193.754Z" fill="black"/>
<path fill-rule="evenodd" clip-rule="evenodd" d="M215.642 192.185C215.308 191.819 214.862 191.615 214.499 191.853C213.226 192.69 212.357 193.583 211.108 194.453C207.247 197.143 201.83 197.893 199.436 202.306C197.008 206.777 196.885 212.256 194.725 216.903C191.816 223.165 187.651 228.721 184.566 234.891C180.746 242.528 174.796 259.275 174.796 259.275C172.875 259.246 163.398 260.483 157.637 261.372C157.418 261.405 157.263 261.602 157.28 261.823C157.296 262.044 157.481 262.215 157.703 262.215C171.285 262.215 211.111 262.215 220.376 262.215C220.849 262.215 221.285 261.962 221.522 261.554C221.759 261.145 221.762 260.64 221.526 260.23C220.34 258.156 218.286 256.94 216 256.374C214.241 255.938 212.543 256.152 210.771 256.302C210.705 256.307 210.62 256.319 210.569 256.266C210.556 256.254 210.538 256.231 210.531 256.215C210.06 255.239 210.311 249.697 210.327 248.45C210.392 243.257 210.624 238.048 211.07 232.872C211.213 231.21 211.511 226.433 211.511 226.433C211.511 226.433 215.505 225.884 216.652 225.624C219.475 224.986 221.781 223.157 223.395 220.78C225.79 217.253 225.945 212.463 227.029 208.45C227.934 205.091 229.629 202.474 231.078 199.393C231.83 197.794 231.565 195.432 229.827 194.572C228.127 193.73 226.345 195.489 225.275 196.614C221.871 200.199 221.697 205.131 218.789 208.686C216.726 211.206 212.565 211.668 212.565 211.668C212.565 211.668 212.437 208.595 212.565 207.742C213.207 203.472 215.614 200.757 216.594 196.828C216.877 195.69 216.717 193.359 215.642 192.185Z" fill="#DD6140"/>
<path fill-rule="evenodd" clip-rule="evenodd" d="M206.053 228.204C207.906 227.257 211.511 226.432 211.511 226.432C211.511 226.432 211.416 227.962 211.307 229.59C209.917 229.087 208.175 228.938 206.25 228.97C206.063 228.973 205.898 228.846 205.852 228.665C205.804 228.483 205.888 228.293 206.053 228.204Z" fill="black"/>
<path fill-rule="evenodd" clip-rule="evenodd" d="M207.89 197.896L208.713 198.502C208.941 198.67 209.262 198.621 209.43 198.393C209.598 198.166 209.549 197.845 209.321 197.677L208.499 197.071C208.271 196.903 207.95 196.952 207.782 197.179C207.615 197.407 207.662 197.728 207.89 197.896Z" fill="black"/>
<path fill-rule="evenodd" clip-rule="evenodd" d="M210.46 256.017C210.425 255.963 210.401 255.903 210.387 255.836C209.321 250.417 207.894 246.708 206.279 244.247C204.73 241.887 203.019 240.705 201.308 240.285C197.855 239.435 194.459 241.636 192.569 243.175C191.708 243.874 191.058 244.558 191.058 244.558C190.959 244.68 190.805 244.754 190.636 244.747C190.354 244.733 190.135 244.492 190.149 244.21C190.149 244.202 190.138 244.047 190.299 243.869C190.408 243.75 190.997 243.132 191.922 242.379C193.998 240.688 197.758 238.357 201.552 239.289C203.465 239.759 205.404 241.046 207.136 243.685C208.287 245.438 209.353 247.802 210.265 250.94C210.228 252.829 210.224 255.151 210.46 256.017ZM201.561 200.478C201.561 200.478 199.901 204.649 198.878 207.224C198.264 208.764 198.904 210.519 200.364 211.305C201.029 211.665 201.702 211.931 202.384 212.099C203.309 212.329 204.289 212.119 205.04 211.533C205.792 210.945 206.23 210.044 206.23 209.089C206.23 205.86 206.23 200.666 206.23 200.666C206.23 200.384 206.001 200.154 205.717 200.154C205.436 200.154 205.205 200.384 205.205 200.666C205.205 200.666 205.205 205.86 205.205 209.089C205.205 209.729 204.912 210.331 204.408 210.724C203.906 211.119 203.25 211.258 202.63 211.105C202.029 210.956 201.437 210.72 200.85 210.403C199.847 209.863 199.409 208.659 199.829 207.603C200.854 205.028 202.515 200.856 202.515 200.856C202.618 200.593 202.49 200.295 202.228 200.191C201.964 200.086 201.667 200.214 201.561 200.478ZM212.532 210.645C212.547 211.233 212.565 211.668 212.565 211.668C212.565 211.668 212.647 211.659 212.794 211.638C212.161 211.767 211.576 211.822 211.026 211.817C210.743 211.814 210.516 211.583 210.519 211.301C210.522 211.018 210.752 210.79 211.035 210.792C211.502 210.796 211.997 210.75 212.532 210.645ZM230.905 195.528C231.096 195.816 231.237 196.139 231.331 196.478C229.385 197.887 227.929 200.033 227.86 200.16C227.726 200.409 227.414 200.501 227.166 200.366C226.917 200.232 226.825 199.921 226.96 199.672C227.036 199.529 228.701 197.073 230.905 195.528ZM229.008 194.354C229.281 194.37 229.555 194.437 229.827 194.572C229.939 194.627 230.046 194.69 230.147 194.758C229.319 195.388 227.637 196.823 225.912 199.201C225.746 199.429 225.425 199.48 225.197 199.313C224.967 199.148 224.916 198.827 225.083 198.598C226.576 196.54 228.043 195.154 229.008 194.354ZM212.798 193.138C213.33 192.703 213.864 192.271 214.499 191.853C214.862 191.615 215.308 191.819 215.642 192.185C215.896 192.462 216.098 192.803 216.257 193.178C214.802 194.689 213.194 193.479 212.798 193.138Z" fill="black"/>
<defs>
<linearGradient id="paint0_linear_1_12980" x1="118.177" y1="224.095" x2="244.617" y2="149.539" gradientUnits="userSpaceOnUse">
<stop stop-color="#B8D8D5"/>
<stop offset="0.42" stop-color="#CEE0DA"/>
<stop offset="1" stop-color="#FFF0E6"/>
</linearGradient>
<linearGradient id="paint1_linear_1_12980" x1="76.6217" y1="134.536" x2="14.2262" y2="212.72" gradientUnits="userSpaceOnUse">
<stop stop-color="#B8D8D5"/>
<stop offset="0.47" stop-color="#CCDFDA"/>
<stop offset="1" stop-color="#FFF0E6"/>
</linearGradient>
<linearGradient id="paint2_linear_1_12980" x1="260.197" y1="151.048" x2="298.731" y2="188.573" gradientUnits="userSpaceOnUse">
<stop stop-color="#FFBF2F"/>
<stop offset="1" stop-color="#FD9500"/>
</linearGradient>
<linearGradient id="paint3_linear_1_12980" x1="286.557" y1="221.199" x2="223.708" y2="178.837" gradientUnits="userSpaceOnUse">
<stop stop-color="#FFBF2F"/>
<stop offset="0.48" stop-color="#FEB422"/>
<stop offset="1" stop-color="#FD9500"/>
</linearGradient>
</defs>
</svg>
