<svg width="350" height="350" viewBox="0 0 350 350" fill="none" xmlns="http://www.w3.org/2000/svg">
<path fill-rule="evenodd" clip-rule="evenodd" d="M133.412 165.888C133.412 165.888 110.664 163.333 101.855 179.774C98.8905 185.306 76.9197 236.606 74.5907 256.823C74.5907 256.823 69.2998 258.496 68.5649 261.212H99.7326C100.063 261.212 100.361 261.013 100.488 260.708C102.762 255.268 122.72 207.518 122.72 207.518C122.72 207.518 125.286 250.802 125.81 259.645C125.862 260.525 126.591 261.212 127.472 261.212C133.381 261.212 153.961 261.212 153.961 261.212C153.961 261.212 153.23 258.359 147.886 256.823C147.886 256.823 150.776 189.491 142.752 172.633L133.412 165.888Z" fill="url(#paint0_linear_1_13458)"/>
<path fill-rule="evenodd" clip-rule="evenodd" d="M118.302 218.089L121.115 189.704C121.134 189.507 121.302 189.359 121.501 189.364C121.698 189.369 121.858 189.526 121.867 189.725L122.669 207.64L118.302 218.089Z" fill="#13524E"/>
<path fill-rule="evenodd" clip-rule="evenodd" d="M148.391 230.881C148.391 231.312 148.39 231.738 148.388 232.162H124.179L124.104 230.881H148.391ZM81.4251 230.881H112.954L112.419 232.162H80.9951L81.0019 232.142C81.1378 231.734 81.2745 231.328 81.4119 230.921L81.4251 230.881Z" fill="#82B5B2"/>
<path d="M115.968 126.463C120.592 126.463 124.34 122.715 124.34 118.091C124.34 113.468 120.592 109.719 115.968 109.719C111.345 109.719 107.597 113.468 107.597 118.091C107.597 122.715 111.345 126.463 115.968 126.463Z" fill="#A8CFCC"/>
<path fill-rule="evenodd" clip-rule="evenodd" d="M115.35 109.741C115.773 111.447 116.384 115.75 113.203 119.552C112.866 119.006 112.256 118.641 111.56 118.641C110.499 118.641 109.638 119.489 109.638 120.533C109.638 121.577 110.499 122.425 111.56 122.425C111.743 122.425 111.921 122.4 112.089 122.352C112.113 123.012 111.942 123.934 111.134 124.924C108.994 123.407 107.597 120.91 107.597 118.09C107.597 113.677 111.018 110.058 115.35 109.741Z" fill="black"/>
<path fill-rule="evenodd" clip-rule="evenodd" d="M109.088 122.329C108.85 122.468 108.251 122.447 107.978 122.502C107.084 122.681 106.195 122.889 105.31 123.108C102.572 123.784 99.873 124.599 97.3189 125.808C95.4606 126.688 93.515 127.802 92.6357 129.752C91.3577 132.586 93.6291 135.13 96.5821 134.864C99.43 134.607 101.665 132.543 103.563 130.603C105.783 128.333 108.318 125.886 110.02 123.176" fill="black"/>
<path fill-rule="evenodd" clip-rule="evenodd" d="M99.3176 141.145C97.9007 142.655 85.4354 156.283 76.0695 166.797C72.9272 170.353 72.6425 175.603 75.3819 179.478C75.3815 179.479 75.3817 179.479 75.3817 179.479C77.7877 182.883 82.1426 184.304 86.0932 182.974C90.3738 181.532 96.2199 178.201 103.023 170.738C106.479 166.947 109.226 163.486 111.494 161.367C111.494 161.367 121.439 164.566 126.555 159.082C126.555 159.082 139.043 175.039 151.129 181.4C155.909 183.885 161.798 182.217 164.564 177.594C165.852 175.459 166.392 172.889 164.943 170.099C158.599 157.878 148.637 148.63 133.411 133.991C130.456 131.148 125.288 127.088 115.278 129.405C111.507 130.278 106.91 133.056 99.3176 141.145Z" fill="#A8CFCC"/>
<path fill-rule="evenodd" clip-rule="evenodd" d="M121.229 151.19C121.229 151.19 121.557 151.106 121.944 151.141C122.272 151.17 122.66 151.286 122.86 151.699C123.127 152.254 122.722 152.712 122.105 153.181C120.853 154.13 118.649 154.961 116.696 155.756C116.433 155.863 116.308 156.162 116.414 156.424C116.521 156.686 116.82 156.812 117.082 156.705C119.123 155.875 121.417 154.989 122.725 153.997C123.817 153.169 124.256 152.236 123.782 151.254C123.395 150.452 122.672 150.178 122.036 150.12C121.458 150.068 120.967 150.199 120.967 150.199C120.693 150.272 120.53 150.552 120.602 150.826C120.675 151.099 120.956 151.263 121.229 151.19Z" fill="#82B5B2"/>
<path fill-rule="evenodd" clip-rule="evenodd" d="M125.197 149.098C125.197 149.098 125.807 148.507 126.637 148.035C127.156 147.74 127.763 147.484 128.359 147.488C128.603 147.488 128.832 147.594 128.989 147.777C129.147 147.96 129.216 148.203 129.179 148.442C129.079 149.017 128.805 149.799 128.098 150.544C127.125 151.569 124.664 154.666 116.827 155.658C116.546 155.694 116.347 155.95 116.383 156.231C116.419 156.512 116.675 156.711 116.956 156.675C125.228 155.627 127.815 152.332 128.842 151.249C129.726 150.318 130.063 149.34 130.191 148.608C130.274 148.064 130.119 147.52 129.768 147.11C129.416 146.7 128.904 146.463 128.363 146.463C127.594 146.459 126.801 146.763 126.131 147.144C125.179 147.684 124.483 148.363 124.483 148.363C124.28 148.56 124.275 148.885 124.472 149.088C124.67 149.291 124.994 149.295 125.197 149.098Z" fill="#82B5B2"/>
<path fill-rule="evenodd" clip-rule="evenodd" d="M126.53 152.455C126.53 152.455 125.217 155.807 123.92 157.102C123.721 157.302 123.721 157.627 123.92 157.827C124.12 158.027 124.446 158.027 124.645 157.827C126.042 156.431 127.483 152.833 127.483 152.833C127.587 152.57 127.459 152.272 127.195 152.168C126.932 152.064 126.634 152.193 126.53 152.455Z" fill="#82B5B2"/>
<path fill-rule="evenodd" clip-rule="evenodd" d="M122.582 154.666V155.872C122.582 156.155 122.812 156.384 123.095 156.384C123.377 156.384 123.607 156.155 123.607 155.872V154.666C123.607 154.383 123.377 154.153 123.095 154.153C122.812 154.153 122.582 154.383 122.582 154.666Z" fill="#82B5B2"/>
<path fill-rule="evenodd" clip-rule="evenodd" d="M126.25 135.302C126.25 135.302 125.43 135.642 125.044 136.577C124.807 137.15 124.72 137.965 125.169 139.085C125.686 140.376 127.017 144.196 125.208 147.136C125.06 147.377 125.135 147.693 125.375 147.841C125.617 147.989 125.932 147.914 126.081 147.673C128.097 144.397 126.696 140.142 126.119 138.704C125.809 137.928 125.827 137.365 125.991 136.968C126.208 136.446 126.652 136.245 126.652 136.245C126.912 136.133 127.034 135.832 126.923 135.572C126.811 135.312 126.51 135.191 126.25 135.302Z" fill="#82B5B2"/>
<path fill-rule="evenodd" clip-rule="evenodd" d="M106.685 166.597C105.559 167.892 104.343 169.291 103.023 170.738C96.2199 178.201 90.3738 181.532 86.0932 182.974C82.1426 184.304 77.7877 182.883 75.3817 179.479C75.3817 179.479 75.3815 179.479 75.3819 179.478C72.6425 175.603 72.9272 170.353 76.0695 166.797C85.4354 156.283 97.9007 142.655 99.3176 141.145C106.91 133.056 111.507 130.278 115.278 129.405C125.288 127.088 130.456 131.148 133.411 133.991C148.637 148.63 158.599 157.878 164.943 170.099C166.392 172.889 165.852 175.459 164.564 177.594C162.33 181.328 158.057 183.134 153.978 182.381L150.513 181.068C146.339 178.762 142.142 175.366 138.451 171.927C136.35 169.744 134.91 168.081 134.91 168.081L141.033 152.962L131.172 145.97C130.757 143.11 130.593 141.282 129.708 139.386C129.467 138.867 129.171 138.344 128.801 137.793C127.08 135.227 125.996 136.754 125.996 136.754C125.197 135.767 124.455 135.313 123.961 135.104C123.699 135 123.406 135.019 123.16 135.154C122.915 135.29 122.743 135.528 122.692 135.804C122.573 136.482 122.988 137.247 123.212 137.598C123.282 137.704 123.361 137.804 123.449 137.895C128.309 142.918 125.622 148.557 125.622 148.557C123.221 151.512 118.935 151.442 118.935 151.442C115.8 151.695 113.828 150.728 112.71 149.847C111.047 148.54 108.848 148.135 106.829 148.763C101.901 150.334 96.5828 155.012 96.5828 155.012L106.685 166.597Z" fill="url(#paint1_linear_1_13458)"/>
<path fill-rule="evenodd" clip-rule="evenodd" d="M111.509 161.371L116.532 155.753C116.532 155.753 122.585 158.516 124.503 156.354L126.936 159.559C126.686 159.25 126.556 159.082 126.556 159.082C121.553 164.446 111.928 161.503 111.509 161.371Z" fill="#82B5B2"/>
<path fill-rule="evenodd" clip-rule="evenodd" d="M97.7086 154.082C96.9991 154.646 96.5816 155.013 96.5816 155.013L97.4082 155.961L82.3862 168.414C82.114 168.639 81.7099 168.601 81.4842 168.329C81.2586 168.056 81.2964 167.653 81.5686 167.427L97.5508 154.178C97.5997 154.138 97.653 154.106 97.7086 154.082ZM140.294 152.439C140.428 152.448 140.563 152.499 140.673 152.594L155.302 165.271C155.568 165.503 155.598 165.908 155.366 166.175C155.134 166.442 154.729 166.471 154.463 166.24L140.541 154.175L141.031 152.963L140.294 152.439ZM99.1657 152.972C99.2412 151.739 99.455 149.325 100.035 147.214C100.098 147.019 100.281 146.889 100.486 146.894C100.69 146.899 100.867 147.038 100.92 147.235C101.235 148.404 101.666 150.012 101.957 151.096C100.926 151.726 99.9739 152.382 99.1657 152.972ZM134.475 148.314L135.161 145.045C135.187 144.923 135.286 144.829 135.409 144.808C135.532 144.788 135.655 144.846 135.717 144.953C136.106 145.811 136.69 147.462 136.973 150.085L134.475 148.314Z" fill="#13524E"/>
<path d="M118.492 151.683C122.986 151.683 126.629 148.09 126.629 143.657C126.629 139.225 122.986 135.632 118.492 135.632C113.998 135.632 110.355 139.225 110.355 143.657C110.355 148.09 113.998 151.683 118.492 151.683Z" fill="#FFCD80"/>
<path d="M118.474 150.332C122.24 150.332 125.293 147.321 125.293 143.607C125.293 139.892 122.24 136.882 118.474 136.882C114.708 136.882 111.655 139.892 111.655 143.607C111.655 147.321 114.708 150.332 118.474 150.332Z" fill="#FFB000"/>
<path d="M116.178 146.25C116.933 146.799 117.794 147.043 118.776 147.006C119.945 146.935 120.497 146.495 120.469 145.684C120.426 145.024 120.011 144.645 119.222 144.547C118.854 144.516 118.461 144.485 118.029 144.445C117.254 144.359 116.644 144.102 116.213 143.686C115.769 143.259 115.532 142.721 115.49 142.073C115.44 141.301 115.651 140.666 116.148 140.166C116.621 139.667 117.322 139.394 118.24 139.335C119.361 139.304 120.349 139.566 121.205 140.111L120.522 141.257C119.827 140.855 119.07 140.656 118.264 140.684C117.849 140.705 117.503 140.822 117.24 141.048C116.965 141.274 116.835 141.606 116.85 142.03C116.867 142.291 116.982 142.51 117.197 142.712C117.412 142.914 117.748 143.034 118.194 143.099C118.435 143.125 118.778 143.157 119.209 143.186C120.059 143.255 120.695 143.523 121.129 143.989C121.549 144.442 121.786 144.98 121.828 145.615C121.9 147.311 120.899 148.224 118.851 148.352C117.53 148.419 116.359 148.066 115.351 147.304L116.178 146.25Z" fill="#FFCD80"/>
<path fill-rule="evenodd" clip-rule="evenodd" d="M118.046 138.213L117.812 149.364L119.366 149.364L119.366 138.213L118.046 138.213Z" fill="#FFCD80"/>
<path fill-rule="evenodd" clip-rule="evenodd" d="M86.6497 241.843C85.8762 241.704 85.2889 241.026 85.2889 240.212V236.897C85.2889 235.982 86.0317 235.239 86.9466 235.239H105.567C106.482 235.239 107.225 235.982 107.225 236.897V240.212C107.225 241.026 106.637 241.704 105.864 241.843C106.637 241.984 107.225 242.662 107.225 243.475V246.791C107.225 247.604 106.637 248.281 105.864 248.422C106.637 248.561 107.225 249.239 107.225 250.053V253.368C107.225 254.182 106.637 254.859 105.864 254.999C106.637 255.14 107.225 255.816 107.225 256.63V259.945C107.225 260.86 106.482 261.603 105.567 261.603H86.9466C86.0317 261.603 85.2889 260.86 85.2889 259.945V256.63C85.2889 255.816 85.8762 255.14 86.6497 254.999C85.8762 254.859 85.2889 254.182 85.2889 253.368V250.053C85.2889 249.239 85.8762 248.561 86.6497 248.422C85.8762 248.281 85.2889 247.604 85.2889 246.791V243.475C85.2889 242.662 85.8762 241.984 86.6497 241.843Z" fill="#FFCD80"/>
<path fill-rule="evenodd" clip-rule="evenodd" d="M102.829 235.239V240.544H107.129C107.15 240.544 107.17 240.545 107.19 240.547C107.061 241.177 106.575 241.677 105.953 241.825H105.92V241.833C105.901 241.837 105.882 241.841 105.863 241.843C105.882 241.847 105.901 241.851 105.92 241.855V247.12H107.129C107.15 247.12 107.17 247.121 107.191 247.123C107.062 247.752 106.578 248.251 105.958 248.401H104.588V253.697H107.129C107.15 253.697 107.17 253.697 107.191 253.7C107.063 254.326 106.581 254.826 105.963 254.978H102.565V261.603H101.284V254.978H100.072V261.603H98.7904V254.978H90.282V261.603H89.0009V254.978H86.5496C85.9306 254.826 85.4477 254.325 85.321 253.697H93.3709V248.401H86.5547C85.9335 248.251 85.4486 247.75 85.3213 247.12H87.1667V241.825H86.5599C85.9367 241.677 85.4498 241.174 85.3216 240.544H90.702V235.239H91.9831V240.544H98.9459V235.239H100.227V240.544H101.548V235.239H102.829ZM94.652 248.401V253.697H95.6204V248.401H94.652ZM96.9015 248.401V253.697H103.307V248.401H96.9015ZM88.4479 241.825V247.12H97.9992V241.825H88.4479ZM99.2803 241.825V247.12H104.638V241.825H99.2803Z" fill="#FDA425"/>
<path fill-rule="evenodd" clip-rule="evenodd" d="M258.863 153.558C257.987 153.126 257.384 152.223 257.384 151.18V145.877C257.384 144.414 258.571 143.226 260.034 143.226H300.295C301.758 143.226 302.945 144.414 302.945 145.877V151.18C302.945 152.223 302.342 153.126 301.464 153.558C302.342 153.991 302.945 154.894 302.945 155.937V161.24C302.945 162.157 302.479 162.965 301.77 163.442C302.479 163.918 302.945 164.727 302.945 165.644V170.946C302.945 171.863 302.479 172.672 301.77 173.148C302.479 173.624 302.945 174.433 302.945 175.349V180.652C302.945 181.569 302.479 182.377 301.77 182.854C302.479 183.331 302.945 184.139 302.945 185.056V190.359C302.945 191.275 302.479 192.084 301.77 192.561C302.479 193.036 302.945 193.846 302.945 194.762V200.065C302.945 200.982 302.479 201.79 301.77 202.267C302.479 202.743 302.945 203.552 302.945 204.469V209.772C302.945 210.688 302.479 211.497 301.77 211.973C302.479 212.449 302.945 213.257 302.945 214.175V219.477C302.945 220.395 302.479 221.203 301.77 221.68C302.479 222.156 302.945 222.964 302.945 223.882V229.184C302.945 230.1 302.479 230.91 301.77 231.385C302.479 231.862 302.945 232.67 302.945 233.588V238.89C302.945 239.807 302.479 240.616 301.77 241.092C302.479 241.568 302.945 242.377 302.945 243.295V248.596C302.945 249.513 302.479 250.323 301.77 250.798C302.479 251.275 302.945 252.083 302.945 253V258.303C302.945 259.766 301.758 260.953 300.295 260.953H260.034C258.571 260.953 257.384 259.766 257.384 258.303V253C257.384 252.083 257.85 251.275 258.558 250.798C257.85 250.323 257.384 249.513 257.384 248.596V243.295C257.384 242.377 257.85 241.568 258.558 241.092C257.85 240.616 257.384 239.807 257.384 238.89V233.588C257.384 232.67 257.85 231.862 258.558 231.385C257.85 230.91 257.384 230.1 257.384 229.184V223.882C257.384 222.964 257.85 222.156 258.558 221.68C257.85 221.203 257.384 220.395 257.384 219.477V214.175C257.384 213.257 257.85 212.449 258.558 211.973C257.85 211.497 257.384 210.688 257.384 209.772V204.469C257.384 203.552 257.85 202.743 258.558 202.267C257.85 201.79 257.384 200.982 257.384 200.065V194.762C257.384 193.846 257.85 193.036 258.558 192.561C257.85 192.084 257.384 191.275 257.384 190.359V185.056C257.384 184.139 257.85 183.331 258.558 182.854C257.85 182.377 257.384 181.569 257.384 180.652V175.349C257.384 174.433 257.85 173.624 258.558 173.148C257.85 172.672 257.384 171.863 257.384 170.946V165.644C257.384 164.727 257.85 163.918 258.558 163.442C257.85 162.965 257.384 162.157 257.384 161.24V155.937C257.384 154.894 257.987 153.991 258.863 153.558Z" fill="#FFCD80"/>
<path fill-rule="evenodd" clip-rule="evenodd" d="M290.566 143.226V152.213H295.473C295.538 151.929 295.793 151.717 296.097 151.717C296.401 151.717 296.655 151.929 296.721 152.213H302.734C302.504 152.757 302.098 153.208 301.586 153.494H296.737V162.195H302.766C302.569 162.706 302.218 163.14 301.77 163.442C301.786 163.453 301.802 163.464 301.818 163.476H300.695V172.114C300.695 172.135 300.694 172.155 300.692 172.176H302.642C302.436 172.568 302.135 172.902 301.77 173.148C301.905 173.239 302.032 173.343 302.149 173.457H295.388V181.674H302.739C302.538 182.156 302.198 182.566 301.77 182.854C301.817 182.886 301.864 182.921 301.909 182.955H299.237V191.371H302.743C302.542 191.858 302.2 192.27 301.77 192.561C301.813 192.589 301.855 192.62 301.898 192.652H294.689V201.08H302.743C302.541 201.565 302.2 201.977 301.77 202.267C301.815 202.298 301.858 202.328 301.9 202.362H298.972V210.868H302.706C302.502 211.318 302.176 211.7 301.77 211.973C301.85 212.028 301.929 212.087 302.003 212.149H293.431V220.46H302.756C302.556 220.958 302.21 221.384 301.77 221.68C301.799 221.699 301.827 221.719 301.855 221.741H297.156V230.044H302.801C302.623 230.563 302.29 231.009 301.855 231.325H293.025V239.888H302.75C302.55 240.38 302.205 240.799 301.77 241.092C301.806 241.117 301.841 241.142 301.877 241.169H297.951V249.469H302.797C302.615 249.99 302.277 250.435 301.838 250.751H288.879V260.953H287.598V250.751H285.01V260.953H283.729V250.751H266.902V260.953H265.621V250.751H258.49C258.05 250.435 257.712 249.99 257.53 249.469H259.807V241.169H258.45C258.485 241.142 258.521 241.117 258.558 241.092C258.122 240.799 257.778 240.38 257.576 239.888H265.806V231.325H258.472C258.038 231.009 257.703 230.563 257.525 230.044H260.728V221.741H258.471C258.499 221.719 258.528 221.699 258.558 221.68C258.117 221.384 257.77 220.958 257.571 220.46H264.529V212.149H258.323C258.399 212.087 258.476 212.028 258.558 211.973C258.152 211.7 257.825 211.318 257.62 210.868H260.405V202.362H258.426C258.469 202.328 258.513 202.298 258.558 202.267C258.127 201.977 257.785 201.565 257.584 201.08H264.99V192.652H258.43C258.472 192.62 258.514 192.589 258.558 192.561C258.126 192.27 257.784 191.858 257.583 191.371H259.512V182.955H258.417C258.463 182.921 258.51 182.886 258.558 182.854C258.129 182.566 257.789 182.156 257.587 181.674H261.772V173.457H258.179C258.295 173.343 258.422 173.239 258.558 173.148C258.193 172.902 257.892 172.568 257.685 172.176H269.309V163.476H262.748C262.665 163.515 262.573 163.537 262.475 163.537C262.377 163.537 262.284 163.515 262.201 163.476H258.508C258.524 163.464 258.541 163.453 258.558 163.442C258.109 163.14 257.758 162.706 257.56 162.195H261.835V153.494H258.741C258.23 153.208 257.822 152.757 257.592 152.213H261.85C261.917 151.929 262.17 151.717 262.475 151.717C262.779 151.717 263.034 151.929 263.099 152.213H271.15V143.226H272.431V152.213H273.821V143.226H275.102V152.213H278.784C278.849 151.929 279.104 151.717 279.409 151.717C279.713 151.717 279.968 151.929 280.033 152.213H281.975C282.042 151.929 282.295 151.717 282.6 151.717C282.904 151.717 283.159 151.929 283.224 152.213H289.285V143.226H290.566ZM261.088 241.169V249.469H272.546V241.169H261.088ZM273.827 241.169V249.469H275.785V241.169H273.827ZM277.066 241.169V249.469H296.67V241.169H277.066ZM267.087 231.325V239.888H278.988V231.325H267.087ZM289.299 231.325H280.269V239.888H289.295V231.393L289.299 231.325ZM290.577 239.888H291.744V231.325H290.573C290.575 231.347 290.577 231.37 290.577 231.393V239.888ZM287.831 221.741V230.044H295.875V221.741H287.831ZM273.863 230.044H286.55V221.741H273.852C273.859 221.779 273.863 221.819 273.863 221.859V230.044ZM272.592 221.741H262.009V230.044H272.582V221.859C272.582 221.82 272.585 221.781 272.592 221.742V221.741ZM283.056 212.149V220.46H292.15V212.149H283.056ZM280.162 212.149V220.46H281.775V212.149H280.162ZM265.81 212.149V220.46H278.881V212.149H265.81ZM271.42 202.362V210.868H287.101V202.362H271.42ZM261.686 202.362V210.868H270.139V202.362H261.686ZM288.382 202.362V210.868H297.691V202.362H288.382ZM277.366 192.652V201.08H278.637V192.652H277.366ZM270.891 201.08H276.085V192.652H266.271V201.08H270.668C270.704 201.074 270.741 201.07 270.78 201.07C270.818 201.07 270.855 201.074 270.891 201.08ZM279.918 192.652V201.08H293.408V192.652H279.918ZM294.239 191.371H297.956V182.955H287.469V191.371H293.858C293.918 191.352 293.982 191.341 294.048 191.341C294.115 191.341 294.179 191.352 294.239 191.371ZM284.382 182.955V191.371H286.187V182.955H284.382ZM260.793 182.955V191.371H273.346V182.955H260.793ZM274.627 182.955V191.371H283.101V182.955H274.627ZM263.053 173.457V181.674H264.617V173.457H263.053ZM280.644 173.457V181.674H294.107V173.457H280.644ZM265.899 173.457V181.674H279.363V173.457H265.899ZM272.858 163.476H270.59V172.176H272.861C272.859 172.155 272.858 172.135 272.858 172.114V163.476ZM288.346 163.476H282.873C282.791 163.515 282.698 163.537 282.6 163.537C282.502 163.537 282.409 163.515 282.326 163.476H279.682C279.599 163.515 279.506 163.537 279.409 163.537C279.31 163.537 279.218 163.515 279.135 163.476H274.139V172.114C274.139 172.135 274.139 172.155 274.136 172.176H288.349C288.346 172.155 288.346 172.135 288.346 172.114V163.476ZM299.414 163.476H296.371C296.288 163.515 296.196 163.537 296.097 163.537C296 163.537 295.906 163.515 295.824 163.476H289.627V172.114C289.627 172.135 289.626 172.155 289.623 172.176H299.416C299.415 172.155 299.414 172.135 299.414 172.114V163.476ZM263.116 153.494V162.195H278.769V153.494H263.116ZM280.05 153.494V162.195H281.96V153.494H280.05ZM283.241 153.494V162.195H295.456V153.494H283.241Z" fill="#FDA425"/>
<path fill-rule="evenodd" clip-rule="evenodd" d="M190.744 212.331C190.035 211.856 189.569 211.046 189.569 210.13V204.827C189.569 203.364 190.757 202.176 192.22 202.176H232.479C233.943 202.176 235.131 203.364 235.131 204.827V210.13C235.131 211.046 234.664 211.856 233.956 212.331C234.664 212.808 235.131 213.616 235.131 214.533V219.836C235.131 220.753 234.664 221.561 233.956 222.038C234.664 222.513 235.131 223.323 235.131 224.24V229.541C235.131 230.459 234.664 231.268 233.956 231.744C234.664 232.22 235.131 233.029 235.131 233.946V239.248C235.131 240.166 234.664 240.974 233.956 241.451C234.664 241.926 235.131 242.736 235.131 243.652V248.954C235.131 249.871 234.664 250.68 233.956 251.156C234.664 251.633 235.131 252.441 235.131 253.359V258.661C235.131 260.124 233.943 261.312 232.479 261.312H192.22C190.757 261.312 189.569 260.124 189.569 258.661V253.359C189.569 252.441 190.035 251.633 190.744 251.156C190.035 250.68 189.569 249.871 189.569 248.954V243.652C189.569 242.736 190.035 241.926 190.744 241.451C190.035 240.974 189.569 240.166 189.569 239.248V233.946C189.569 233.029 190.035 232.22 190.744 231.744C190.035 231.268 189.569 230.459 189.569 229.541V224.24C189.569 223.323 190.035 222.513 190.744 222.038C190.035 221.561 189.569 220.753 189.569 219.836V214.533C189.569 213.616 190.035 212.808 190.744 212.331Z" fill="#FFCD80"/>
<path fill-rule="evenodd" clip-rule="evenodd" d="M225.669 211.242H234.886C234.681 211.685 234.356 212.062 233.955 212.331C234.043 212.39 234.126 212.454 234.207 212.523H230.405V220.818V220.82H234.941C234.742 221.318 234.395 221.742 233.955 222.038C233.985 222.058 234.016 222.079 234.045 222.101H226.458V230.341C226.458 230.378 226.456 230.414 226.449 230.448H234.97C234.779 230.972 234.428 231.42 233.976 231.73H231.638V240.025C231.638 240.061 231.634 240.097 231.629 240.131H234.979C234.795 240.653 234.453 241.098 234.009 241.412H227.028V249.854H234.973C234.784 250.377 234.436 250.823 233.986 251.135H231.324V261.312H230.043V251.135H221.778C221.778 251.146 221.78 251.156 221.78 251.167V261.312H220.499V251.167C220.499 251.156 220.499 251.146 220.499 251.135H214.18C214.098 251.173 214.009 251.194 213.914 251.194C213.818 251.194 213.728 251.173 213.646 251.135H205.438V261.312H204.157V251.135H201.917V261.312H200.636V251.135H190.711C190.262 250.823 189.913 250.377 189.725 249.854H198.565V241.412H190.688C190.246 241.098 189.903 240.653 189.719 240.131H192.973V231.73H190.723C190.27 231.42 189.918 230.972 189.728 230.448H197.592V222.101H190.653C190.683 222.079 190.713 222.058 190.744 222.038C190.303 221.742 189.957 221.318 189.757 220.82H192.559V212.523H190.492C190.572 212.454 190.655 212.39 190.744 212.331C190.341 212.062 190.018 211.685 189.812 211.242H195.701V202.176H196.983V211.242H198.294V202.176H199.576V211.242H211.341V202.176H212.622V211.242H224.388V202.176H225.669V211.242ZM199.846 241.412V249.854H213.273V241.412H199.846ZM214.554 241.412V249.854H223.211V241.412H214.554ZM224.492 241.412V249.854H225.747V241.412H224.492ZM194.254 231.73V240.131H204.618V231.73H194.254ZM218.467 231.73H205.899V240.131H218.501C218.48 240.066 218.467 239.995 218.467 239.922V231.73ZM230.357 231.73H219.748V239.922C219.748 239.995 219.736 240.066 219.713 240.131H230.365C230.359 240.097 230.357 240.061 230.357 240.025V231.73ZM198.873 222.101V230.448H208.718V222.101H198.873ZM209.999 222.101V230.448H211.513V222.101H209.999ZM225.177 222.101H212.794V230.448H218.91C218.972 230.428 219.038 230.418 219.107 230.418C219.177 230.418 219.243 230.428 219.306 230.448H225.188C225.181 230.414 225.177 230.378 225.177 230.341V222.101ZM193.84 212.523V220.82H205.121V212.523H193.84ZM206.403 212.523V220.82H216.603V212.523H206.403ZM217.884 212.523V220.82H219.598V212.523H217.884ZM229.124 212.523H220.879V220.82H229.124V220.818V212.523Z" fill="#FDA425"/>
<path fill-rule="evenodd" clip-rule="evenodd" d="M235.145 174.383H247.486C268.718 174.383 285.956 194.399 285.956 219.053C285.956 241.8 271.304 260.952 252.358 263.723C250.769 263.956 235.228 263.723 235.228 263.723C213.996 263.723 196.758 243.707 196.758 219.053C196.758 194.431 213.951 174.434 235.145 174.383Z" fill="#FDA425"/>
<path d="M235.227 263.723C256.474 263.723 273.697 243.724 273.697 219.053C273.697 194.382 256.474 174.383 235.227 174.383C213.981 174.383 196.758 194.382 196.758 219.053C196.758 243.724 213.981 263.723 235.227 263.723Z" fill="#FFCD80"/>
<path fill-rule="evenodd" clip-rule="evenodd" d="M235.376 192.507L234.048 192.433L234.078 190.451L236.396 190.58C236.945 190.611 237.381 191.079 237.372 191.627L237.321 194.979C239.348 195.183 241.289 195.617 243.141 196.28C245.509 197.126 247.735 198.345 249.818 199.936C250.054 200.115 250.201 200.386 250.226 200.675C250.248 200.965 250.145 201.245 249.94 201.444L245.404 205.841C245.062 206.172 244.523 206.197 244.126 205.899C242.072 204.359 239.763 203.361 237.199 202.905L237.026 214.075C246.564 216.636 251.091 221.477 250.856 228.331C250.743 232.055 249.308 235.065 246.569 237.352C244.065 239.523 240.749 240.826 236.608 241.229L236.52 246.989C236.511 247.535 236.062 247.953 235.513 247.923L233.238 247.796L233.268 245.816L234.554 245.888L234.641 240.253C234.649 239.751 235.029 239.35 235.529 239.319C239.601 239.054 242.843 237.905 245.253 235.818C247.575 233.879 248.779 231.335 248.876 228.187C249.087 222.02 244.646 217.984 235.822 215.795C235.357 215.678 235.026 215.25 235.033 214.776L235.235 201.706C235.239 201.433 235.357 201.179 235.559 201.002C235.76 200.826 236.03 200.744 236.302 200.778C239.367 201.141 242.125 202.16 244.572 203.828L247.697 200.8C246.069 199.679 244.353 198.793 242.542 198.148C240.565 197.44 238.483 197.019 236.291 196.878C235.747 196.843 235.317 196.376 235.325 195.832L235.376 192.507ZM236.732 233.214C238.178 232.858 239.24 232.302 239.887 231.501C240.29 230.983 240.589 230.392 240.782 229.728L242.686 230.362C242.42 231.259 242.012 232.058 241.457 232.773C240.396 234.086 238.565 235.001 235.912 235.415C235.62 235.46 235.316 235.371 235.086 235.17C234.858 234.968 234.727 234.677 234.732 234.379L234.839 227.374L236.82 227.484L236.732 233.214ZM226.324 204.584C226.685 203.708 227.15 202.988 227.708 202.419C227.722 202.405 227.738 202.391 227.751 202.377C229.008 201.249 230.49 200.641 232.193 200.551C232.472 200.537 232.751 200.644 232.958 200.842C233.164 201.042 233.28 201.318 233.275 201.597L233.187 207.334L231.206 207.224L231.276 202.7C230.482 202.906 229.767 203.292 229.13 203.859C228.733 204.269 228.412 204.792 228.153 205.419C228.148 205.436 228.139 205.453 228.131 205.469C227.821 206.117 227.671 206.917 227.656 207.855L225.676 207.744C225.695 206.501 225.918 205.45 226.324 204.584Z" fill="#FDA31F"/>
<path fill-rule="evenodd" clip-rule="evenodd" d="M227.09 211.978C226.132 210.81 225.652 209.401 225.677 207.743L227.658 207.853C227.64 208.991 227.947 209.961 228.606 210.761L228.629 210.79C229.144 211.463 229.982 212.018 231.127 212.497L231.208 207.222L233.188 207.332L233.087 213.946C233.082 214.253 232.934 214.535 232.687 214.71C232.443 214.883 232.124 214.931 231.828 214.836C229.541 214.102 227.978 213.123 227.09 211.978Z" fill="#FDA31F"/>
<path fill-rule="evenodd" clip-rule="evenodd" d="M236.892 222.742L236.819 227.483L234.839 227.373L234.93 221.429C234.935 221.138 235.066 220.87 235.289 220.694C235.515 220.518 235.808 220.452 236.093 220.514C238.852 221.119 240.683 222.113 241.651 223.36L241.672 223.391C242.613 224.698 243.076 226.174 243.05 227.821C243.036 228.742 242.911 229.59 242.685 230.361L240.781 229.727C240.963 229.114 241.058 228.442 241.07 227.711C241.088 226.527 240.764 225.467 240.094 224.526C239.485 223.751 238.409 223.178 236.892 222.742Z" fill="#FDA31F"/>
<path fill-rule="evenodd" clip-rule="evenodd" d="M230.989 221.263C221.82 218.704 217.519 213.997 217.83 207.408C217.971 203.433 219.294 200.393 221.74 198.262C223.977 196.311 227.188 195.119 231.398 194.743L231.451 191.297C231.459 190.75 231.909 190.331 232.455 190.361L234.078 190.452L234.047 192.434L233.416 192.399L233.365 195.723C233.357 196.227 232.974 196.63 232.472 196.659C228.342 196.91 225.2 197.927 223.072 199.781C221.001 201.588 219.931 204.189 219.81 207.571C219.531 213.473 223.754 217.374 232.202 219.557C232.662 219.676 232.989 220.101 232.982 220.571L232.771 234.27C232.767 234.549 232.644 234.807 232.436 234.985C232.227 235.161 231.95 235.237 231.672 235.196C229.196 234.825 227.105 234.154 225.4 233.196C223.899 232.434 222.56 231.518 221.379 230.446L217.536 233.432C219.348 234.835 221.362 236.045 223.57 237.064C226.148 238.225 228.863 238.902 231.718 239.099C232.261 239.137 232.689 239.602 232.681 240.144L232.594 245.779L233.267 245.816L233.237 247.796L231.572 247.704C231.026 247.673 230.59 247.206 230.598 246.66L230.685 240.993C227.941 240.705 225.319 239.995 222.813 238.866C220.012 237.574 217.517 235.998 215.32 234.14C215.089 233.945 214.953 233.655 214.952 233.357C214.949 233.057 215.083 232.779 215.314 232.599L220.791 228.345C221.177 228.042 221.745 228.088 222.105 228.454C223.284 229.645 224.67 230.64 226.255 231.442L226.297 231.464C227.56 232.176 229.064 232.701 230.808 233.046L230.989 221.263Z" fill="#FDA31F"/>
<path fill-rule="evenodd" clip-rule="evenodd" d="M233.381 183.223C248.898 183.223 261.361 199.361 261.361 219.109C261.361 238.855 248.898 254.993 233.381 254.993C232.815 254.993 232.355 255.452 232.355 256.018C232.355 256.584 232.815 257.044 233.381 257.044C249.88 257.044 263.41 240.104 263.41 219.109C263.41 198.112 249.88 181.174 233.381 181.174C232.815 181.174 232.355 181.633 232.355 182.198C232.355 182.764 232.815 183.223 233.381 183.223Z" fill="#FDA425"/>
<path fill-rule="evenodd" clip-rule="evenodd" d="M233.381 254.993C217.863 254.993 205.4 238.855 205.4 219.109C205.4 199.361 217.863 183.223 233.381 183.223C233.947 183.223 234.405 182.764 234.405 182.198C234.405 181.633 233.947 181.174 233.381 181.174C216.882 181.174 203.35 198.112 203.35 219.109C203.35 240.104 216.882 257.044 233.381 257.044C233.947 257.044 234.405 256.584 234.405 256.018C234.405 255.452 233.947 254.993 233.381 254.993Z" fill="#FDA425"/>
<path fill-rule="evenodd" clip-rule="evenodd" d="M263.392 260.057H248.713C248.148 260.057 247.688 259.597 247.688 259.032C247.688 258.466 248.148 258.007 248.713 258.007H266.345C266.464 258.007 266.578 258.028 266.684 258.065C265.618 258.789 264.521 259.453 263.392 260.057ZM280.139 242.799C279.767 243.495 279.381 244.179 278.979 244.849H264.883C264.317 244.849 263.858 244.39 263.858 243.824C263.858 243.258 264.317 242.799 264.883 242.799H280.139ZM282.92 236.542C282.669 237.235 282.402 237.918 282.124 238.592H266.345C265.779 238.592 265.32 238.133 265.32 237.567C265.32 237.002 265.779 236.542 266.345 236.542H282.92ZM285.852 215.738C285.896 216.418 285.925 217.101 285.942 217.788H271.866C271.3 217.788 270.842 217.329 270.842 216.763C270.842 216.198 271.3 215.738 271.866 215.738H285.852ZM283.613 203.672C283.826 204.349 284.027 205.033 284.213 205.722H268.878C268.313 205.722 267.853 205.264 267.853 204.697C267.853 204.132 268.313 203.672 268.878 203.672H283.613ZM281.509 198.196C281.816 198.87 282.109 199.552 282.386 200.246H268.325C267.76 200.246 267.301 199.787 267.301 199.221C267.301 198.656 267.76 198.196 268.325 198.196H281.509ZM267.874 181.174C268.758 181.817 269.618 182.5 270.453 183.223H254.234C253.67 183.223 253.21 182.763 253.21 182.198C253.21 181.632 253.67 181.174 254.234 181.174H267.874Z" fill="#FFCD80"/>
<path fill-rule="evenodd" clip-rule="evenodd" d="M201.201 100.376C202.108 97.2488 204.692 88.3091 206.557 84.3144L217.29 90.1371C217.29 90.1371 212.666 106.844 211.669 111.635L199.185 108.666C199.564 106.056 200.289 103.523 201.201 100.376Z" fill="#82B5B2"/>
<path d="M206.892 103.801C208.947 103.801 210.613 102.057 210.613 99.9068C210.613 97.7562 208.947 96.0128 206.892 96.0128C204.837 96.0128 203.172 97.7562 203.172 99.9068C203.172 102.057 204.837 103.801 206.892 103.801Z" fill="#A8CFCC" fill-opacity="0.63"/>
<path fill-rule="evenodd" clip-rule="evenodd" d="M204.242 104.696C204.848 103.007 208.229 94.2453 210.315 91.6122L220.03 97.072C220.03 97.072 214.794 110.984 213.6 114.99L202.093 111.86C202.59 109.669 203.294 107.338 204.242 104.696Z" fill="#A8CFCC"/>
<path d="M210.964 107.787C213.019 107.787 214.685 106.044 214.685 103.893C214.685 101.743 213.019 99.9995 210.964 99.9995C208.909 99.9995 207.244 101.743 207.244 103.893C207.244 106.044 208.909 107.787 210.964 107.787Z" fill="#82B5B2"/>
<path d="M234.999 105.43C239.532 105.43 243.206 101.756 243.206 97.2233C243.206 92.6909 239.532 89.0167 234.999 89.0167C230.467 89.0167 226.793 92.6909 226.793 97.2233C226.793 101.756 230.467 105.43 234.999 105.43Z" fill="#E86135"/>
<path fill-rule="evenodd" clip-rule="evenodd" d="M229.541 91.0978C230.992 89.8037 232.905 89.0167 234.999 89.0167C239.529 89.0167 243.206 92.694 243.206 97.2233C243.206 98.7773 242.773 100.231 242.023 101.47C235.928 98.7322 236.821 92.1266 236.821 92.1266C233.471 93.2211 230.969 92.1127 229.541 91.0978Z" fill="black"/>
<path fill-rule="evenodd" clip-rule="evenodd" d="M199.833 201.526C199.833 201.526 197.433 196.884 199.833 193.405L195.573 185.921C195.573 185.921 193.503 184.595 191.152 183.089C185.836 179.682 182.787 173.662 183.186 167.363C183.216 166.883 183.272 166.443 183.355 166.058C180.91 163.751 178.891 158.575 179.634 153.622C179.634 153.622 179.634 153.622 179.634 153.622C180.668 146.723 186.399 141.496 193.363 141.099C204.57 140.464 223.803 140.029 235.628 143.42L232.968 136.799C232.968 136.799 214.046 143.565 209.254 128.027C198.391 132.414 186.295 135.62 174.335 137.355C169.334 138.083 164.401 135.658 161.922 131.255C161.917 131.258 161.917 131.258 161.917 131.258C159.82 127.534 160.49 122.865 163.549 119.88C166.625 116.912 171.871 113.073 180.83 108.656C180.83 108.656 189.804 103.911 195.059 101.132C197.407 99.8906 200.191 99.7824 202.628 100.838C207.805 103.08 216.358 106.786 216.358 106.786L217.357 104.264C223.296 105.253 229.132 107.052 234.853 109.278C240.929 111.651 245.637 116.599 247.704 122.784C252.792 138.017 262.401 167.263 263.661 174.59H267.264C269.288 174.59 271.042 175.994 271.484 177.969C271.828 179.513 272.162 181.003 272.162 181.003C272.162 181.003 274.456 183.569 275.127 185.921C275.4 186.879 273.872 187.997 272.162 186.202C271.656 185.67 266.741 181.792 264.534 181.55C262.845 181.364 261.352 181.171 259.959 181C255.684 180.476 251.889 178.009 249.674 174.313C248.193 171.843 246.831 169.57 246.831 169.57C246.831 169.57 242.214 176.975 229.54 175.639L231.509 201.236C231.509 201.236 228.98 200.637 228.135 196.504C228.135 196.504 213.852 194.602 205.717 191.157C205.717 191.157 202.507 194.343 199.833 201.526Z" fill="url(#paint2_linear_1_13458)"/>
<path fill-rule="evenodd" clip-rule="evenodd" d="M263.594 174.223C263.618 174.351 263.64 174.473 263.661 174.589H265.366C266.191 175.168 267.445 176.078 268.804 177.162L269.241 176.67C269.43 176.458 269.754 176.439 269.965 176.628C270.176 176.815 270.196 177.139 270.007 177.35L269.601 177.807C270.372 178.444 271.157 179.126 271.898 179.825L272.161 181.003L263.812 174.764C263.629 174.643 263.548 174.424 263.594 174.223Z" fill="#D7441E"/>
<path fill-rule="evenodd" clip-rule="evenodd" d="M214.871 194.008L221.967 173.861C222.085 173.527 222.451 173.352 222.784 173.469C223.117 173.587 223.293 173.952 223.176 174.287L216.125 194.303C215.709 194.208 215.291 194.109 214.871 194.008ZM195.573 185.921C195.573 185.921 198.32 187.398 200.684 188.62C203.679 190.171 206.816 191.622 205.717 191.156C205.717 191.156 205.411 191.461 204.909 192.093C202.215 190.886 199.113 189.259 196.735 187.963L195.573 185.921ZM182.378 164.951C184.434 155.088 192.121 149.484 201.063 146.368C213.702 141.961 228.836 142.559 233.57 142.884C234.266 143.048 235.276 143.265 235.927 143.451C235.964 143.543 236.25 143.72 236.24 143.825C236.203 144.176 236.691 144.434 236.338 144.398C236.338 144.398 216.684 143.156 201.484 147.577C192.048 150.322 185.524 157.161 183.355 166.057C183.02 165.74 182.692 165.369 182.378 164.951Z" fill="#D7441E"/>
<path fill-rule="evenodd" clip-rule="evenodd" d="M229.654 176.906C227.293 176.543 224.297 175.561 221.138 174.276C211.881 170.514 201.164 164.219 201.164 164.219C200.859 164.04 200.758 163.647 200.936 163.342C201.116 163.038 201.509 162.936 201.814 163.115C201.814 163.115 212.439 169.359 221.62 173.089C224.933 174.436 229.827 175.668 229.54 175.639L229.654 176.906Z" fill="#8A2208"/>
<path fill-rule="evenodd" clip-rule="evenodd" d="M234.898 141.6L232.968 136.799C232.968 136.799 214.046 143.565 209.254 128.027C198.391 132.414 186.295 135.62 174.335 137.355C169.334 138.083 164.401 135.658 161.922 131.255C161.917 131.258 161.917 131.258 161.917 131.258C159.82 127.534 160.49 122.865 163.549 119.88C166.625 116.912 171.871 113.073 180.83 108.656C180.83 108.656 189.804 103.911 195.059 101.132C197.407 99.8906 200.191 99.7824 202.628 100.838C207.805 103.08 216.358 106.786 216.358 106.786L217.357 104.264C223.296 105.253 229.132 107.052 234.853 109.278C240.929 111.651 245.637 116.599 247.704 122.784C250.761 131.933 255.447 146.137 258.975 157.61L244.227 162.107C241.028 155.398 237.784 148.744 234.949 141.609L234.898 141.6Z" fill="#D7441E"/>
<path fill-rule="evenodd" clip-rule="evenodd" d="M230.224 137.552C229.755 135.21 229.645 132.751 229.688 130.243C229.689 130.105 229.789 129.988 229.925 129.963C230.061 129.937 230.196 130.01 230.248 130.138C231.498 133.186 234.56 140.645 234.56 140.645H234.513L232.968 136.8C232.968 136.8 231.906 137.179 230.224 137.552ZM189.677 122.396L173.933 131.264C173.624 131.438 173.515 131.829 173.688 132.137C173.862 132.445 174.253 132.554 174.562 132.38L190.306 123.512C190.614 123.338 190.723 122.947 190.549 122.639C190.376 122.331 189.985 122.222 189.677 122.396ZM205.938 129.316C206.533 125.007 207.95 121.986 208.937 120.319C209 120.227 209.121 120.196 209.222 120.245C209.322 120.294 209.372 120.409 209.338 120.516C208.319 124.177 209.194 127.795 209.251 128.017L209.253 128.028C208.16 128.469 207.055 128.899 205.938 129.316Z" fill="#8A2208"/>
<path fill-rule="evenodd" clip-rule="evenodd" d="M181.518 108.293L195.06 101.132C197.408 99.8906 200.192 99.7824 202.628 100.838L215.985 106.624C216.075 106.684 216.157 106.738 216.23 106.786C218.457 108.245 216.698 109.687 216.075 109.481C217.596 110.204 217.544 111.405 217.186 111.925C216.595 112.784 214.481 112.471 214.481 112.471C215.069 112.68 215.609 113.828 215.153 114.679C214.42 116.047 212.415 115.216 212.415 115.216C212.779 117.124 210.806 117.131 208.399 116.621C206.534 116.226 205.68 115.809 204.094 115.413C201.53 122.249 193.876 121.459 193.876 121.459L188.832 124.319L181.518 108.293Z" fill="url(#paint3_linear_1_13458)"/>
<path fill-rule="evenodd" clip-rule="evenodd" d="M212.423 115.256L203.851 111.928C203.587 111.826 203.456 111.528 203.559 111.265C203.661 111.001 203.959 110.87 204.223 110.973L214.83 115.091C213.956 115.855 212.415 115.216 212.415 115.216C212.418 115.229 212.42 115.242 212.423 115.256ZM214.611 112.532L204.866 108.749C204.602 108.647 204.471 108.349 204.574 108.086C204.676 107.822 204.973 107.691 205.237 107.793L216.407 112.13C216.51 112.17 216.592 112.239 216.648 112.324C215.803 112.666 214.482 112.47 214.482 112.47C214.525 112.486 214.569 112.507 214.611 112.532ZM216.179 109.5L206.034 105.561C205.77 105.459 205.638 105.162 205.741 104.898C205.843 104.634 206.14 104.504 206.404 104.606L217.202 108.798C216.977 109.239 216.494 109.519 216.179 109.5Z" fill="#D7441E"/>
<path fill-rule="evenodd" clip-rule="evenodd" d="M185.459 256.972C184.734 256.484 184.255 255.655 184.255 254.716V249.282C184.255 247.783 185.472 246.566 186.972 246.566H228.225C229.724 246.566 230.941 247.783 230.941 249.282V254.716C230.941 255.655 230.464 256.484 229.737 256.972C230.464 257.46 230.941 258.289 230.941 259.228V264.661C230.941 266.161 229.724 267.378 228.225 267.378H186.972C185.472 267.378 184.255 266.161 184.255 264.661V259.228C184.255 258.289 184.734 257.46 185.459 256.972Z" fill="#FFDBA3"/>
<path fill-rule="evenodd" clip-rule="evenodd" d="M218.612 255.871H230.684C230.474 256.318 230.145 256.699 229.737 256.972C229.821 257.028 229.9 257.088 229.977 257.152H226.066V267.378H224.785V257.152H214.076V267.378H212.795V257.152H211.16V267.378H209.879V257.152H193.337V267.378H192.056V257.152H185.221C185.297 257.088 185.376 257.028 185.46 256.972C185.054 256.699 184.724 256.318 184.514 255.871H199.51V246.566H200.791V255.871H202.425V246.566H203.707V255.871H217.331V246.566H218.612V255.871Z" fill="#FDA425"/>
<defs>
<linearGradient id="paint0_linear_1_13458" x1="111.263" y1="213.478" x2="111.003" y2="286.704" gradientUnits="userSpaceOnUse">
<stop stop-color="#A8CFCC"/>
<stop offset="1" stop-color="#59A09B"/>
</linearGradient>
<linearGradient id="paint1_linear_1_13458" x1="119.656" y1="156.093" x2="123.04" y2="221.102" gradientUnits="userSpaceOnUse">
<stop stop-color="#82B5B2"/>
<stop offset="0.45" stop-color="#A7C6C1"/>
<stop offset="1" stop-color="#FFF0E6"/>
</linearGradient>
<linearGradient id="paint2_linear_1_13458" x1="239.655" y1="169.399" x2="167.388" y2="105.362" gradientUnits="userSpaceOnUse">
<stop stop-color="#E86135"/>
<stop offset="0.48" stop-color="#EE734F"/>
<stop offset="1" stop-color="#FFA396"/>
</linearGradient>
<linearGradient id="paint3_linear_1_13458" x1="199.461" y1="114.342" x2="204.646" y2="80.3019" gradientUnits="userSpaceOnUse">
<stop stop-color="#E86135"/>
<stop offset="1" stop-color="#FFA396"/>
</linearGradient>
</defs>
</svg>
