<svg width="145" height="27" viewBox="0 0 145 27" fill="none" xmlns="http://www.w3.org/2000/svg">
<path d="M0 5.98145C0 5.69661 0.0244141 5.4484 0.0732422 5.23682C0.12207 5.02523 0.215658 4.85026 0.354004 4.71191C0.49235 4.56543 0.683594 4.45557 0.927734 4.38232C1.17188 4.30908 1.48926 4.27246 1.87988 4.27246H7.32422C7.79622 4.27246 8.1543 4.34163 8.39844 4.47998C8.65072 4.61833 8.82568 4.79329 8.92334 5.00488C9.02913 5.20833 9.0861 5.42806 9.09424 5.66406C9.10238 5.89193 9.10645 6.10352 9.10645 6.29883V20.1294C9.66797 20.048 10.1888 19.9748 10.6689 19.9097C10.8724 19.8853 11.0758 19.8608 11.2793 19.8364C11.4909 19.8039 11.6821 19.7754 11.853 19.751C12.0321 19.7266 12.1908 19.7103 12.3291 19.7021C12.4674 19.6859 12.5692 19.6777 12.6343 19.6777C12.7726 19.6777 12.8825 19.7062 12.9639 19.7632C13.0534 19.812 13.0981 19.9178 13.0981 20.0806V21.2036C13.0981 21.3501 13.033 21.4884 12.9028 21.6187C12.7808 21.7407 12.5814 21.8018 12.3047 21.8018H1.85547C1.47298 21.8018 1.15967 21.7651 0.915527 21.6919C0.679525 21.6187 0.49235 21.5129 0.354004 21.3745C0.215658 21.2362 0.12207 21.0612 0.0732422 20.8496C0.0244141 20.638 0 20.3898 0 20.105V5.98145Z" fill="#6C5B7B"/>
<path d="M14.4775 10.9985C14.4775 10.7218 14.502 10.4777 14.5508 10.2661C14.5996 10.0464 14.6932 9.86735 14.8315 9.729C14.9699 9.59066 15.1611 9.48486 15.4053 9.41162C15.6494 9.33838 15.9668 9.30176 16.3574 9.30176H21.7041C22.0785 9.30176 22.3796 9.33838 22.6074 9.41162C22.8434 9.47673 23.0265 9.57845 23.1567 9.7168C23.2869 9.85514 23.3724 10.0301 23.4131 10.2417C23.4538 10.4533 23.4741 10.7056 23.4741 10.9985V20.1294C23.4741 20.4061 23.4538 20.6502 23.4131 20.8618C23.3724 21.0653 23.2869 21.2402 23.1567 21.3867C23.0265 21.5251 22.8434 21.6309 22.6074 21.7041C22.3796 21.7692 22.0785 21.8018 21.7041 21.8018H16.3574C15.9668 21.8018 15.6494 21.7651 15.4053 21.6919C15.1611 21.6187 14.9699 21.5129 14.8315 21.3745C14.6932 21.2362 14.5996 21.0612 14.5508 20.8496C14.502 20.638 14.4775 20.3898 14.4775 20.105V10.9985ZM14.9292 4.07715C14.9292 3.51562 15.035 2.98665 15.2466 2.49023C15.4663 1.99382 15.7593 1.5625 16.1255 1.19629C16.4917 0.830078 16.923 0.541178 17.4194 0.32959C17.9159 0.109863 18.4448 0 19.0063 0C19.5597 0 20.0806 0.109863 20.5688 0.32959C21.0653 0.541178 21.4966 0.830078 21.8628 1.19629C22.229 1.5625 22.5179 1.99382 22.7295 2.49023C22.9492 2.98665 23.0591 3.51562 23.0591 4.07715C23.0591 4.63053 22.9492 5.15544 22.7295 5.65186C22.5179 6.14014 22.229 6.56738 21.8628 6.93359C21.4966 7.2998 21.0653 7.59277 20.5688 7.8125C20.0806 8.02409 19.5597 8.12988 19.0063 8.12988C18.4448 8.12988 17.9159 8.02409 17.4194 7.8125C16.923 7.59277 16.4917 7.2998 16.1255 6.93359C15.7593 6.56738 15.4663 6.14014 15.2466 5.65186C15.035 5.15544 14.9292 4.63053 14.9292 4.07715Z" fill="#6C5B7B"/>
<path d="M34.436 8.87451C34.9569 8.87451 35.4777 8.90706 35.9985 8.97217C36.5194 9.02913 37.0117 9.10645 37.4756 9.2041C37.9476 9.30176 38.3748 9.41162 38.7573 9.53369C39.1479 9.64762 39.4653 9.76156 39.7095 9.87549C39.7502 9.89176 39.7909 9.91618 39.8315 9.94873C39.8804 9.98128 39.9048 10.0423 39.9048 10.1318C39.9048 10.1562 39.9007 10.1888 39.8926 10.2295C39.8844 10.2702 39.8763 10.3109 39.8682 10.3516L39.7217 11.0718C39.7054 11.1694 39.681 11.2305 39.6484 11.2549C39.624 11.2712 39.5996 11.2793 39.5752 11.2793C39.5345 11.2793 39.4572 11.2671 39.3433 11.2427C39.2293 11.2183 39.1073 11.2061 38.9771 11.2061C38.5132 11.2061 38.147 11.3322 37.8784 11.5845C37.6099 11.8286 37.439 12.2599 37.3657 12.8784L36.6821 18.5791C36.617 19.0837 36.4461 19.5557 36.1694 19.9951C35.9009 20.4346 35.5103 20.8211 34.9976 21.1548C34.4849 21.4884 33.8501 21.7489 33.0933 21.936C32.3446 22.1313 31.4657 22.229 30.4565 22.229C29.8218 22.229 29.2033 22.1883 28.6011 22.1069C27.9989 22.0337 27.4414 21.9401 26.9287 21.8262C26.4242 21.7204 25.9806 21.6146 25.5981 21.5088C25.2238 21.3949 24.943 21.3053 24.7559 21.2402C24.6908 21.224 24.6419 21.2036 24.6094 21.1792C24.5687 21.1466 24.5483 21.0978 24.5483 21.0327C24.5483 21.0002 24.5524 20.9635 24.5605 20.9229C24.5687 20.8822 24.5809 20.8333 24.5972 20.7764L24.7437 20.0928C24.7599 20.0277 24.7884 19.9748 24.8291 19.9341C24.8698 19.8934 24.943 19.873 25.0488 19.873C25.3174 19.873 25.5859 19.8608 25.8545 19.8364C26.1312 19.8039 26.3835 19.7266 26.6113 19.6045C26.8473 19.4824 27.0508 19.2952 27.2217 19.043C27.4007 18.7907 27.5228 18.4367 27.5879 17.981L28.4424 12.0972C28.5319 11.4787 28.7598 10.9619 29.126 10.5469C29.4922 10.1318 29.9438 9.80225 30.481 9.55811C31.0262 9.30583 31.6406 9.13086 32.3242 9.0332C33.0078 8.92741 33.7118 8.87451 34.436 8.87451Z" fill="#6C5B7B"/>
<path d="M40.2222 13.3057C40.0513 13.3057 39.9658 13.2161 39.9658 13.0371V12.0605C39.9658 11.8896 40.0513 11.8042 40.2222 11.8042H41.4917V9.0332C41.4917 8.91113 41.508 8.78906 41.5405 8.66699C41.5812 8.54492 41.6829 8.45133 41.8457 8.38623L48.584 5.896C48.8932 5.78206 49.1496 5.69661 49.353 5.63965C49.5565 5.58268 49.7355 5.5542 49.8901 5.5542C49.9471 5.5542 50.0081 5.56641 50.0732 5.59082C50.1465 5.6071 50.2116 5.63965 50.2686 5.68848C50.3337 5.7373 50.3866 5.80648 50.4272 5.896C50.4679 5.97738 50.4883 6.0791 50.4883 6.20117V11.8042H52.6855C52.8564 11.8042 52.9419 11.8896 52.9419 12.0605V13.0371C52.9419 13.2161 52.8564 13.3057 52.6855 13.3057H50.4883V18.2251C50.4883 18.8029 50.5819 19.2098 50.769 19.4458C50.9644 19.6818 51.2614 19.7998 51.6602 19.7998C51.7497 19.7998 51.8433 19.7917 51.9409 19.7754C52.0386 19.751 52.1281 19.7306 52.2095 19.7144C52.299 19.6899 52.3804 19.6696 52.4536 19.6533C52.5269 19.6289 52.5879 19.6167 52.6367 19.6167C52.7262 19.6167 52.771 19.6696 52.771 19.7754V20.7153C52.771 20.8781 52.7384 20.988 52.6733 21.0449C52.6082 21.1019 52.5513 21.1385 52.5024 21.1548C52.1932 21.285 51.827 21.4152 51.4038 21.5454C50.9888 21.6756 50.5371 21.7896 50.0488 21.8872C49.5687 21.993 49.0601 22.0744 48.5229 22.1313C47.9858 22.1965 47.4487 22.229 46.9116 22.229C46.1385 22.229 45.4183 22.1883 44.751 22.1069C44.0918 22.0337 43.5181 21.8587 43.0298 21.582C42.5496 21.3053 42.1712 20.8944 41.8945 20.3491C41.626 19.8039 41.4917 19.0633 41.4917 18.1274V13.3057H40.2222Z" fill="#6C5B7B"/>
<path d="M65.8691 19.7754C66.0889 19.7754 66.2882 19.7469 66.4673 19.6899C66.6463 19.6248 66.805 19.5557 66.9434 19.4824C67.0898 19.4092 67.2078 19.3441 67.2974 19.2871C67.395 19.222 67.4683 19.1895 67.5171 19.1895C67.5903 19.1895 67.6392 19.2017 67.6636 19.2261C67.6961 19.2505 67.7327 19.2952 67.7734 19.3604L68.2007 20.0195C68.2414 20.0846 68.2617 20.1416 68.2617 20.1904C68.2617 20.2474 68.2454 20.2922 68.2129 20.3247C68.1803 20.3573 68.1478 20.3857 68.1152 20.4102C67.8467 20.5973 67.5171 20.8008 67.1265 21.0205C66.7358 21.2321 66.2801 21.4274 65.7593 21.6064C65.2466 21.7855 64.6647 21.932 64.0137 22.0459C63.3626 22.168 62.6465 22.229 61.8652 22.229C61.2549 22.229 60.6445 22.1802 60.0342 22.0825C59.4238 21.9849 58.8379 21.8302 58.2764 21.6187C57.723 21.4071 57.2062 21.1304 56.7261 20.7886C56.2459 20.4468 55.8268 20.0277 55.4688 19.5312C55.1188 19.0348 54.8421 18.4611 54.6387 17.8101C54.4352 17.1509 54.3335 16.3981 54.3335 15.5518C54.3335 14.7217 54.4352 13.9811 54.6387 13.3301C54.8421 12.6709 55.1188 12.0931 55.4688 11.5967C55.8268 11.1003 56.2459 10.6812 56.7261 10.3394C57.2062 9.98942 57.723 9.70866 58.2764 9.49707C58.8379 9.27734 59.4238 9.11865 60.0342 9.021C60.6445 8.92334 61.2549 8.87451 61.8652 8.87451C62.8825 8.87451 63.8265 8.98844 64.6973 9.21631C65.5762 9.44417 66.3371 9.81852 66.98 10.3394C67.6229 10.8602 68.1274 11.5438 68.4937 12.3901C68.8599 13.2365 69.043 14.2741 69.043 15.5029V16.1865C69.043 16.333 69.0063 16.4469 68.9331 16.5283C68.8599 16.6097 68.7378 16.6504 68.5669 16.6504H63.5132C63.5783 17.2526 63.6922 17.7572 63.855 18.1641C64.0259 18.5628 64.2171 18.8843 64.4287 19.1284C64.6484 19.3644 64.8844 19.5312 65.1367 19.6289C65.389 19.7266 65.6331 19.7754 65.8691 19.7754ZM67.3096 15.1489C67.3096 14.4979 67.2567 13.9608 67.1509 13.5376C67.0532 13.1063 66.9189 12.7645 66.748 12.5122C66.5771 12.2518 66.3737 12.0687 66.1377 11.9629C65.9098 11.8571 65.6698 11.8042 65.4175 11.8042C65.2303 11.8042 65.0269 11.8408 64.8071 11.9141C64.5874 11.9873 64.3799 12.1419 64.1846 12.3779C63.9974 12.6139 63.8346 12.9517 63.6963 13.3911C63.5661 13.8306 63.4888 14.4165 63.4644 15.1489H67.3096Z" fill="#6C5B7B"/>
<path d="M70.8252 10.9985C70.8252 10.7218 70.8496 10.4777 70.8984 10.2661C70.9473 10.0464 71.0409 9.86735 71.1792 9.729C71.3175 9.59066 71.5088 9.48486 71.7529 9.41162C71.9971 9.33838 72.3145 9.30176 72.7051 9.30176H77.6978C78.064 9.30176 78.3773 9.33838 78.6377 9.41162C78.9062 9.48486 79.0975 9.611 79.2114 9.79004C79.3172 9.7168 79.4434 9.63949 79.5898 9.55811C79.7445 9.46859 79.9113 9.38721 80.0903 9.31396C80.2694 9.24072 80.4606 9.17969 80.6641 9.13086C80.8675 9.08203 81.0791 9.05762 81.2988 9.05762C82.0801 9.05762 82.6864 9.32617 83.1177 9.86328C83.5571 10.4004 83.7769 11.1898 83.7769 12.2314V21.228C83.7769 21.3664 83.7565 21.4762 83.7158 21.5576C83.6833 21.6309 83.6385 21.6878 83.5815 21.7285C83.5327 21.7611 83.4717 21.7814 83.3984 21.7896C83.3252 21.7977 83.252 21.8018 83.1787 21.8018H82.3975C82.1859 21.8018 82.0475 21.7407 81.9824 21.6187C81.9255 21.4966 81.897 21.3664 81.897 21.228V12.1094C81.897 11.6455 81.8115 11.2915 81.6406 11.0474C81.4779 10.8032 81.2134 10.6812 80.8472 10.6812C80.66 10.6812 80.4688 10.734 80.2734 10.8398C80.0863 10.9375 79.9357 11.0433 79.8218 11.1572V20.0928C79.8218 20.3776 79.7974 20.6258 79.7485 20.8374C79.6997 21.049 79.6061 21.228 79.4678 21.3745C79.3294 21.5129 79.1382 21.6187 78.894 21.6919C78.6499 21.7651 78.3325 21.8018 77.9419 21.8018H72.7051C72.3145 21.8018 71.9971 21.7651 71.7529 21.6919C71.5088 21.6187 71.3175 21.5129 71.1792 21.3745C71.0409 21.2362 70.9473 21.0612 70.8984 20.8496C70.8496 20.638 70.8252 20.3898 70.8252 20.105V10.9985Z" fill="#6C5B7B"/>
<path d="M93.0908 22.229C92.4805 22.229 91.8701 22.1802 91.2598 22.0825C90.6494 21.9849 90.0635 21.8302 89.502 21.6187C88.9486 21.4071 88.4318 21.1304 87.9517 20.7886C87.4715 20.4468 87.0524 20.0277 86.6943 19.5312C86.3444 19.0348 86.0677 18.4611 85.8643 17.8101C85.6608 17.1509 85.5591 16.3981 85.5591 15.5518C85.5591 14.7217 85.6608 13.9811 85.8643 13.3301C86.0677 12.6709 86.3444 12.0931 86.6943 11.5967C87.0524 11.1003 87.4715 10.6812 87.9517 10.3394C88.4318 9.98942 88.9486 9.70866 89.502 9.49707C90.0635 9.27734 90.6494 9.11865 91.2598 9.021C91.8701 8.92334 92.4805 8.87451 93.0908 8.87451C93.6523 8.87451 94.2261 8.91113 94.812 8.98438C95.4061 9.04948 95.9798 9.17562 96.5332 9.36279C97.0947 9.54183 97.6196 9.79004 98.1079 10.1074C98.6043 10.4167 99.0356 10.8154 99.4019 11.3037C99.7762 11.792 100.069 12.3779 100.281 13.0615C100.5 13.737 100.61 14.5345 100.61 15.4541C100.61 16.3981 100.505 17.2241 100.293 17.9321C100.081 18.632 99.7884 19.2342 99.4141 19.7388C99.0479 20.2352 98.6206 20.6462 98.1323 20.9717C97.644 21.2972 97.1191 21.5535 96.5576 21.7407C96.0042 21.9198 95.4305 22.0459 94.8364 22.1191C94.2423 22.1924 93.6605 22.229 93.0908 22.229ZM96.8384 19.2993C97.0907 19.2993 97.3389 19.2464 97.583 19.1406C97.8353 19.0267 98.055 18.8273 98.2422 18.5425C98.4375 18.2577 98.5921 17.867 98.7061 17.3706C98.8281 16.866 98.8892 16.2272 98.8892 15.4541C98.8892 14.7217 98.8281 14.1195 98.7061 13.6475C98.5921 13.1755 98.4375 12.8052 98.2422 12.5366C98.0469 12.2599 97.8271 12.0687 97.583 11.9629C97.3389 11.8571 97.0907 11.8042 96.8384 11.8042C96.6431 11.8042 96.4233 11.8449 96.1792 11.9263C95.9432 12.0076 95.7194 12.1826 95.5078 12.4512C95.3044 12.7116 95.1335 13.09 94.9951 13.5864C94.8568 14.0747 94.7876 14.7298 94.7876 15.5518C94.7876 16.3737 94.8446 17.0329 94.9585 17.5293C95.0724 18.0257 95.223 18.4041 95.4102 18.6646C95.5973 18.925 95.813 19.0959 96.0571 19.1772C96.3094 19.2586 96.5698 19.2993 96.8384 19.2993Z" fill="#6C5B7B"/>
<path d="M102.393 10.9985C102.393 10.7218 102.417 10.4777 102.466 10.2661C102.515 10.0464 102.608 9.86735 102.747 9.729C102.885 9.59066 103.076 9.48486 103.32 9.41162C103.564 9.33838 103.882 9.30176 104.272 9.30176H109.619C109.993 9.30176 110.295 9.33838 110.522 9.41162C110.75 9.48486 110.929 9.59473 111.06 9.74121C111.19 9.8877 111.275 10.0708 111.316 10.2905C111.365 10.5103 111.389 10.7666 111.389 11.0596V11.9629L114.099 9.32617C114.278 9.15527 114.445 9.06982 114.6 9.06982C114.689 9.06982 114.766 9.09017 114.832 9.13086C114.905 9.16341 114.966 9.2041 115.015 9.25293L115.564 9.82666C115.686 9.94873 115.747 10.083 115.747 10.2295C115.747 10.319 115.719 10.4126 115.662 10.5103C115.613 10.5998 115.531 10.6893 115.417 10.7788L111.389 13.9038V20.0806C111.389 20.3654 111.369 20.6177 111.328 20.8374C111.287 21.049 111.198 21.228 111.06 21.3745C110.921 21.5129 110.722 21.6187 110.461 21.6919C110.201 21.7651 109.847 21.8018 109.399 21.8018H104.272C103.882 21.8018 103.564 21.7651 103.32 21.6919C103.076 21.6187 102.885 21.5129 102.747 21.3745C102.608 21.2362 102.515 21.0612 102.466 20.8496C102.417 20.638 102.393 20.3898 102.393 20.105V10.9985Z" fill="#6C5B7B"/>
<path d="M124.634 14.4897L126.343 10.022C126.383 9.91618 126.42 9.82259 126.453 9.74121C126.485 9.65169 126.526 9.57438 126.575 9.50928C126.624 9.44417 126.689 9.39534 126.77 9.36279C126.851 9.3221 126.957 9.30176 127.087 9.30176H128.516C128.743 9.30176 128.857 9.36686 128.857 9.49707C128.857 9.60286 128.817 9.75342 128.735 9.94873L121.838 26.2207C121.79 26.3265 121.749 26.416 121.716 26.4893C121.684 26.5706 121.643 26.6357 121.594 26.6846C121.554 26.7334 121.501 26.77 121.436 26.7944C121.37 26.8188 121.281 26.8311 121.167 26.8311H119.592C119.348 26.8311 119.226 26.7578 119.226 26.6113C119.226 26.5137 119.275 26.3672 119.373 26.1719L121.179 22.2656L114.966 10.3271C114.925 10.2458 114.893 10.1644 114.868 10.083C114.852 10.0016 114.844 9.92839 114.844 9.86328C114.844 9.65983 114.921 9.51742 115.076 9.43604C115.238 9.34652 115.401 9.30176 115.564 9.30176H121.753C122.046 9.30176 122.27 9.36279 122.424 9.48486C122.587 9.5988 122.693 9.71273 122.742 9.82666L124.634 14.4897Z" fill="#6C5B7B"/>
<path d="M133.655 17.9321L131.995 20.8008C131.921 20.931 131.848 21.0571 131.775 21.1792C131.71 21.3013 131.632 21.4071 131.543 21.4966C131.462 21.5861 131.364 21.6593 131.25 21.7163C131.144 21.7733 131.01 21.8018 130.847 21.8018H129.443C129.321 21.8018 129.22 21.7733 129.138 21.7163C129.065 21.6512 129.028 21.5576 129.028 21.4355C129.028 21.3623 129.041 21.2809 129.065 21.1914C129.097 21.0938 129.15 20.988 129.224 20.874L132.373 15.7227L129.248 10.3027C129.15 10.1481 129.102 10.0016 129.102 9.86328C129.102 9.48893 129.346 9.30176 129.834 9.30176H136.877C137.284 9.30176 137.565 9.34652 137.72 9.43604C137.882 9.52555 138.009 9.64762 138.098 9.80225L139.673 12.4878L140.942 10.3027C141.016 10.1725 141.085 10.0464 141.15 9.92432C141.223 9.80225 141.3 9.69645 141.382 9.60693C141.471 9.51742 141.573 9.44417 141.687 9.38721C141.801 9.33024 141.939 9.30176 142.102 9.30176H143.494C143.624 9.30176 143.726 9.33431 143.799 9.39941C143.88 9.45638 143.921 9.5459 143.921 9.66797C143.921 9.83073 143.856 10.0179 143.726 10.2295L140.979 14.7095L144.446 20.6421C144.511 20.7479 144.564 20.8537 144.604 20.9595C144.653 21.0571 144.678 21.1507 144.678 21.2402C144.678 21.3786 144.653 21.4884 144.604 21.5698C144.556 21.6431 144.491 21.7 144.409 21.7407C144.328 21.7733 144.238 21.7936 144.141 21.8018C144.051 21.8018 143.958 21.8018 143.86 21.8018H136.694C136.491 21.8018 136.316 21.7773 136.169 21.7285C136.031 21.6715 135.913 21.6064 135.815 21.5332C135.726 21.46 135.653 21.3827 135.596 21.3013C135.547 21.2199 135.506 21.1466 135.474 21.0815L133.655 17.9321Z" fill="#6C5B7B"/>
</svg>
